<?xml version="1.0" encoding="utf-8"?>
<!-- Generator: Adobe Illustrator 23.0.3, SVG Export Plug-In . SVG Version: 6.00 Build 0)  -->
<svg version="1.1" xmlns="http://www.w3.org/2000/svg" xmlns:xlink="http://www.w3.org/1999/xlink" x="0px" y="0px"
	 viewBox="0 0 1600 1200" style="enable-background:new 0 0 1600 1200;" xml:space="preserve">
<style type="text/css">
	.st0{fill:#FFFFFF;stroke:#FFFFFF;stroke-miterlimit:10;}
	.st1{stroke:#000000;stroke-miterlimit:10;}
	.st2{stroke:#000000;stroke-width:0.75;stroke-miterlimit:10;}
	.st3{stroke:#000000;stroke-width:2;stroke-miterlimit:10;}
	.st4{fill:none;stroke:#000000;stroke-width:0.75;stroke-miterlimit:10;}
	.st5{fill:none;stroke:#000000;stroke-miterlimit:10;}
</style>
<g id="body">
	<g id="Layer_5">
		<path d="M665.4,788c9.8,32.1,19.6,64.3,29.4,96.4c53.5-1.5,107.1-2.9,160.6-4.4c3-34.6,5.9-69.3,8.9-103.9
			C798,780.1,731.7,784.1,665.4,788z"/>
		<g>
			<g>
				<g>
					<path class="st0" d="M761.5,844.3c0.2-0.1,0.9,0.7,2.4,1.6c1.5,0.9,4,1.9,7.1,1.6c1.5-0.2,3.2-0.6,4.7-1.5
						c1.6-0.9,3-2.3,4.2-3.9c2.3-3.4,3.6-8.1,3.1-12.8c-0.3-2.4-1-4.6-2.1-6.5s-2.6-3.5-4.3-4.6c-3.4-2.3-7.3-2.7-10.2-1.7
						s-4.9,2.9-5.8,4.4c-1,1.5-1.3,2.5-1.6,2.5c-0.2,0-0.3-1.2,0.5-3.1c0.8-1.8,2.7-4.4,6.1-5.9c1.7-0.8,3.8-1.2,6-1
						s4.5,0.9,6.6,2.2s4,3.2,5.4,5.5s2.3,5,2.6,7.8c0.6,5.6-1,11-3.9,15c-1.5,2-3.3,3.5-5.3,4.5c-2,1.1-4.1,1.4-5.9,1.5
						c-3.7,0-6.6-1.5-8-2.9C761.7,845.6,761.3,844.4,761.5,844.3z"/>
				</g>
			</g>
		</g>
		<g>
			<g>
				<g>
					<path class="st0" d="M772.7,838.1c0.1,0.2,0.1,0.6-0.4,1.1c-0.4,0.6-1.3,1.2-2.5,1.6c-1.2,0.4-2.8,0.6-4.6,0.2
						c-1.7-0.4-3.6-1.5-4.8-3.3c-1.2-1.9-1.4-4-1.1-5.7c0.3-1.7,1.1-3.2,2-4.1c0.9-1,1.8-1.5,2.5-1.7s1.1-0.1,1.2,0.1
						c0.2,0.5-1,1.2-1.8,3c-0.4,0.8-0.8,1.9-0.9,3.2c-0.1,1.2,0.2,2.5,0.9,3.6c0.7,1,1.8,1.8,2.9,2.2c1.1,0.4,2.3,0.5,3.2,0.5
						C771.2,838.5,772.3,837.7,772.7,838.1z"/>
				</g>
			</g>
		</g>
		<g>
			<g>
				<g>
					<path class="st0" d="M773.3,833c-0.4-0.1-0.8-0.5-1-0.9c-0.3-0.4-0.5-0.9-0.7-1.4s-0.3-1-0.4-1.5c0-0.5-0.1-1,0.2-1.3
						c0.3-0.4,0.8-0.5,1.5-0.2s1.4,1,1.7,2c0.4,1,0.3,2-0.1,2.6C774.3,832.8,773.7,833.1,773.3,833z"/>
				</g>
			</g>
		</g>
		<path d="M645.5,1011.4c12.9,2.7,25.7,5.4,38.6,8.1c-5.4,8.4-13.4,23.6-15.3,44c-0.9,9.4-0.2,17.7,0.9,24.3
			c8.3-14,16.7-28.1,25.1-42.2c6.9-11.5,13.8-22.8,20.7-34.1c-19.5-6.6-38.9-13.2-58.4-19.8c-1.8,1-6.1,3.6-9,9
			C645.8,1005.1,645.5,1009.3,645.5,1011.4z"/>
		<path d="M896.9,1074.2c-3.4,10.5-6.8,21-10.2,31.4c5.3,5.8,13,14,22.9,23.4c15.9,15.1,26.2,22.7,24.6,26c-1.3,2.8-9.8,1-14.4,0
			c-11.7-2.5-20-7.5-23.8-9.9c-8.2-5-19.3-11.7-34.8-20.7c1.7-18.3,3.4-36.5,5.1-54.8C876.6,1071.3,886.8,1072.8,896.9,1074.2z"/>
		<g>
			<g>
				<g>
					<path class="st1" d="M1020.7,891.4c0.1-0.2,1-0.1,2.5,0.5c0.7,0.3,1.6,0.7,2.6,1.3c0.5,0.3,1,0.6,1.5,1s1.1,0.8,1.7,1.6
						s0.8,2.1,0.3,3.2c-0.5,1.1-1.3,1.7-2.1,2.2c-0.4,0.3-0.8,0.5-1.3,0.7s-0.9,0.3-1.3,0.5c-0.9,0.2-1.7,0.6-2.7,0.7
						c-3.7,0.9-7.8,1.4-12.2,1.4c-8.7,0-16.3-1.6-21.7-2.8c-5.4-1.3-8.7-2.3-8.6-2.7c0.1-0.4,3.5-0.2,9,0.4c5.5,0.6,13,1.8,21.3,1.8
						c4.1,0,8-0.4,11.5-1.1c0.9-0.1,1.7-0.4,2.5-0.6c0.4-0.1,0.8-0.2,1.1-0.3c0.3-0.1,0.7-0.3,0.9-0.4c0.6-0.3,1-0.7,1.2-1
						s0.2-0.6,0-0.9c-0.2-0.4-0.6-0.8-1-1.2s-0.9-0.8-1.3-1.1c-0.8-0.7-1.6-1.2-2.2-1.7C1021.3,892.1,1020.6,891.6,1020.7,891.4z"/>
				</g>
			</g>
		</g>
		<g>
			<g>
				<g>
					<path class="st1" d="M1021.1,894.6c0.2,0.4-0.5,1.4-2.1,2.6c-1.6,1.2-4.1,2.4-7.1,3.2c-3,0.7-5.8,0.8-7.7,0.5
						c-2-0.3-3.1-0.9-3.1-1.3c0.1-0.9,4.7-1,10-2.4C1016.5,895.8,1020.6,893.8,1021.1,894.6z"/>
				</g>
			</g>
		</g>
		<g>
			<g>
				<g>
					<path class="st1" d="M1025.8,895.3c0.3,0.3-0.1,1.4-1.4,2.6c-1.2,1.3-3.4,2.6-6,3.4c-2.6,0.8-5.1,0.8-6.9,0.4
						c-1.7-0.4-2.7-1-2.6-1.4c0.2-0.9,4.1-0.7,8.5-2.1C1021.9,896.9,1025.1,894.7,1025.8,895.3z"/>
				</g>
			</g>
		</g>
		<g>
			<g>
				<g>
					<path class="st1" d="M1025.1,896.9c-0.7,0.6-2.3-0.2-3.9-1.3c-1.6-1.1-3-2.2-2.7-3c0.1-0.4,0.7-0.7,1.5-0.7s1.9,0.3,3,1
						c1,0.7,1.8,1.6,2.1,2.3C1025.5,896,1025.4,896.6,1025.1,896.9z"/>
				</g>
			</g>
		</g>
		<g>
			<g>
				<g>
					
						<ellipse transform="matrix(0.1492 -0.9888 0.9888 0.1492 -16.8596 1774.8585)" class="st1" cx="1022.9" cy="897.2" rx="1.6" ry="3.9"/>
				</g>
			</g>
		</g>
		<g>
			<g>
				<g>
					<path class="st1" d="M911.2,778.1c0.3,0.2-1.4,3.5-5,8.3c-1.8,2.4-4.1,5.1-6.8,8s-5.9,5.9-9.4,8.9c-3.5,2.9-7.1,5.5-10.4,7.7
						c-3.3,2.2-6.4,4-9.1,5.3c-5.4,2.7-8.9,3.9-9.1,3.5c-0.4-0.9,12.7-7.4,26.5-19C901.6,789.3,910.4,777.5,911.2,778.1z"/>
				</g>
			</g>
		</g>
		<g>
			<g>
				<g>
					<path class="st1" d="M758.1,884.3c0.2,1-18.4,5.4-40.1,14.3c-10.9,4.4-20.4,9-27.3,12.5c-1.7,0.9-3.3,1.6-4.6,2.3
						c-1.4,0.7-2.6,1.2-3.4,1.8c-0.9,0.5-1.3,1.1-1.6,1.5c-0.2,0.4-0.3,0.8-0.4,0.8c-0.1,0-0.3-0.3-0.2-0.9c0.1-0.7,0.5-1.6,1.4-2.3
						c0.9-0.8,2-1.5,3.3-2.3c1.3-0.9,2.8-1.8,4.4-2.8c6.6-4,16.2-9,27.2-13.5s21.3-7.6,28.9-9.3C753.2,884.4,758,883.8,758.1,884.3z
						"/>
				</g>
			</g>
		</g>
		<g>
			<g>
				<g>
					<path class="st1" d="M746.7,882.6c0.2,0.9-9,3.7-19.9,8.1c-11,4.4-19.5,8.8-20,8c-0.5-0.7,7.5-6.5,18.8-11
						C736.8,883.1,746.5,881.7,746.7,882.6z"/>
				</g>
			</g>
		</g>
		<g>
			<g>
				<g>
					
						<ellipse transform="matrix(0.9733 -0.2295 0.2295 0.9733 -184.0985 192.9261)" class="st1" cx="737.4" cy="887.9" rx="11.4" ry="1.6"/>
				</g>
			</g>
		</g>
		<g>
			<g>
				<g>
					
						<ellipse transform="matrix(0.9997 -2.586403e-02 2.586403e-02 0.9997 -16.2564 19.1879)" class="st2" cx="733.6" cy="638" rx="9" ry="1.2"/>
				</g>
			</g>
		</g>
		<g>
			<g>
				<g>
					<path class="st2" d="M794.8,636.9c0.2,0,0.5,1.4,0.7,3.9c0.2,2.6,0.3,6.3-0.6,10.9c-0.9,4.5-2.8,10-6.8,14.8
						c-2.1,2.4-4.6,4.5-7.6,6.2c-1.5,0.8-3.1,1.5-4.8,2.1c-1.7,0.5-3.5,0.9-5.3,1c-3.7,0.3-7.3-0.6-10.4-2.1
						c-3.1-1.5-5.8-3.5-7.9-5.8c-2.2-2.2-3.9-4.7-5.2-7.1c-1.3-2.4-2.3-4.7-3.1-6.9c-1.6-4.3-2.3-8-2.8-10.5s-0.6-3.9-0.5-4
						c0.2,0,0.6,1.3,1.4,3.7c0.8,2.4,1.8,5.9,3.5,10.1c1.7,4.1,4.2,8.9,8.3,13c2.1,2,4.5,3.9,7.3,5.2s6,2,9.3,1.8
						c1.6-0.1,3.2-0.4,4.8-0.9c1.5-0.5,3-1.1,4.4-1.8c2.8-1.5,5.1-3.4,7-5.6c1.9-2.2,3.4-4.5,4.5-6.9c1.1-2.3,1.8-4.7,2.4-6.8
						c1.1-4.3,1.2-8,1.3-10.5C794.6,638.4,794.6,636.9,794.8,636.9z"/>
				</g>
			</g>
		</g>
		<g>
			<g>
				<g>
					
						<ellipse transform="matrix(9.759768e-02 -0.9952 0.9952 9.759768e-02 93.5642 1374.965)" class="st2" cx="805" cy="635.9" rx="1.2" ry="8.8"/>
				</g>
			</g>
		</g>
		<g>
			<g>
				<g>
					<path class="st2" d="M764,689.9c0,0.2-1.1,0.1-2.9-0.2c-1.8-0.3-4.5-0.7-7.8-1.8c-1.6-0.5-3.4-1.2-5.2-2.2s-3.6-2.3-5.2-4
						c-1.6-1.7-3.1-3.7-3.9-6.2c-0.1-0.3-0.2-0.6-0.3-0.9l-0.1-0.6v-0.2c-0.1,0-0.1,0-0.2,0c-1.1,0.1-2.1,0.3-3.2,0.4
						c-0.6,0.1-1.3,0.2-1.9,0.3c-0.6,0.1-1.2,0.2-2,0.2c-0.4,0-0.8,0-1.3-0.1s-0.9-0.4-1.2-0.6c-0.7-0.6-1.1-1.2-1.4-1.8
						c-0.3-0.6-0.5-1.2-0.7-1.7s-0.4-1.1-0.6-1.6c-0.4-1.1-0.8-2.2-1.2-3.2c-1.4-4.2-2.4-8.1-3.1-11.4c-1.3-6.6-1.4-10.8-1.1-10.8
						c0.4,0,1.1,4,2.8,10.4c0.9,3.2,2,6.9,3.5,11c0.4,1,0.8,2.1,1.2,3.1c0.2,0.5,0.4,1.1,0.7,1.6c0.2,0.5,0.5,1.1,0.7,1.5
						c0.2,0.5,0.5,0.8,0.8,1s0.4,0.2,0.9,0.2s1.1-0.1,1.7-0.2c0.6-0.1,1.2-0.2,1.9-0.3c1.4-0.2,2.8-0.4,4.2-0.6l0.8-0.1l0.4-0.1h0.2
						h0.1v0.1c0.1,0.5,0.2,1.1,0.3,1.6c0,0.3,0.1,0.5,0.2,0.8l0.1,0.4c0.1,0.3,0.2,0.5,0.2,0.8c0.7,2.1,1.9,3.9,3.3,5.4
						c2.8,3.1,6.3,4.9,9.3,6.1c3,1.2,5.6,1.9,7.4,2.5C763,689.3,764,689.7,764,689.9z"/>
				</g>
			</g>
		</g>
		<g>
			<g>
				<g>
					<path class="st2" d="M780.5,687.6c-0.1-0.3,2.6-1.6,7.1-3.6c1.1-0.5,2.4-1,3.7-1.6s3.1-1.1,3.6-1.9c0.2-0.4,0.3-0.9,0.1-1.7
						c-0.2-0.7-0.5-1.6-0.8-2.4c-0.8-2.2-1.5-4.5-2.3-6.9c1-0.1,1.9-0.1,2.9-0.2l1.1-0.1l0.8-0.1c1.1-0.1,2.2-0.3,3.2-0.6
						c2.2-0.5,4-1.5,5.4-3c1.4-1.4,2.4-3.3,3-5.1c1.3-3.7,1.6-7.4,2-10.5c0.6-6.2,0.6-10,1-10.1c0.3,0,0.9,3.9,0.8,10.2
						c-0.1,3.1-0.2,7-1.6,11.1c-0.3,1-0.8,2.1-1.3,3.1c-0.6,1-1.2,2-2.1,2.9c-1.7,1.8-4.1,3.1-6.5,3.7c-1.2,0.3-2.4,0.5-3.6,0.6
						l-0.9,0.1h-0.6h-0.4l0.1,0.3c0.1,0.3,0.2,0.6,0.3,1c0.3,0.9,0.6,1.8,0.9,2.7c0.3,0.9,0.6,1.7,0.8,2.7c0.1,0.5,0.2,1,0.1,1.6
						c-0.1,0.6-0.3,1.2-0.6,1.7c-0.7,1-1.7,1.4-2.5,1.7c-0.7,0.3-1.5,0.5-2.2,0.8c-1.4,0.5-2.7,0.9-3.9,1.3
						C783.5,687,780.6,687.8,780.5,687.6z"/>
				</g>
			</g>
		</g>
		<g>
			<g>
				<g>
					<path class="st2" d="M633,770.9c-0.1,0-0.2-2.2,0.1-6.1c0.3-3.9,1.1-9.6,2.7-16.5c0.4-1.7,0.9-3.5,1.4-5.4s1.2-3.8,1.8-5.7
						c1.4-3.9,3-8.1,5-12.3c3.9-8.5,9.1-17.5,15.3-26.3c6.3-8.8,13-16.6,19.5-23.3s12.6-12.4,18-17.1c5.3-4.6,9.7-8.2,12.9-10.6
						c3.1-2.4,4.9-3.7,5-3.5c0.1,0.1-1.5,1.6-4.4,4.3c-2.9,2.6-7.2,6.4-12.3,11.2c-10.2,9.6-24.2,23.2-36.6,40.5
						c-6.2,8.7-11.3,17.5-15.3,25.8c-2,4.2-3.6,8.2-5.1,12.1c-0.7,1.9-1.4,3.8-1.9,5.6s-1.1,3.6-1.6,5.2c-1.9,6.7-2.9,12.3-3.5,16.2
						C633.5,768.7,633.2,770.9,633,770.9z"/>
				</g>
			</g>
		</g>
		<g>
			<g>
				<g>
					<path class="st2" d="M672.2,828.7c-0.1,0.3-3.7-1.2-8.6-4.9c-4.9-3.7-10.8-9.9-15.8-17.9c-5-7.9-8.3-15.6-10.6-21.3
						c-2.2-5.6-3.4-9.2-3.1-9.3c0.3-0.1,2,3.2,4.7,8.6c2.7,5.4,6.2,12.9,11.1,20.6c4.9,7.7,10.4,13.9,14.8,17.8
						C669.1,826.4,672.3,828.4,672.2,828.7z"/>
				</g>
			</g>
		</g>
		<g>
			<g>
				<g>
					<path class="st2" d="M711.3,781.3c-0.6,0.3-5.4-7.7-12.2-16.9c-6.7-9.3-12.8-16.4-12.3-16.9s7.4,6,14.3,15.4
						C708,772.4,711.9,781,711.3,781.3z"/>
				</g>
			</g>
		</g>
		<g>
			<g>
				<g>
					<path class="st2" d="M918.5,773.8c-0.2,0-0.9-2.3-2.1-6.4c-0.3-1-0.6-2.2-1-3.5s-0.9-2.6-1.3-4.1c-1-2.9-2-6.3-3.4-9.9
						c-0.7-1.8-1.4-3.7-2.2-5.7s-1.7-3.9-2.6-6c-1.7-4.2-4-8.5-6.3-13.1c-4.8-9-10.7-18.6-17.7-28.1c-7.1-9.4-14.6-17.8-21.8-25
						c-3.7-3.5-7.2-6.9-10.7-9.8c-1.7-1.5-3.4-2.9-5-4.2c-1.7-1.3-3.3-2.5-4.8-3.7c-3-2.4-6-4.3-8.5-6.1c-1.3-0.9-2.4-1.7-3.5-2.5
						c-1.1-0.7-2.1-1.3-3-1.9c-3.7-2.3-5.6-3.7-5.6-3.8c0.1-0.1,2.2,0.9,6,3c1,0.5,2,1.1,3.2,1.8c1.1,0.7,2.3,1.5,3.6,2.3
						c2.6,1.7,5.6,3.5,8.7,5.9c1.6,1.2,3.2,2.4,4.9,3.6c1.7,1.3,3.4,2.7,5.2,4.2c3.6,2.8,7.2,6.2,11,9.7
						c7.4,7.2,15.1,15.6,22.2,25.2c7.1,9.6,12.9,19.4,17.7,28.5c2.2,4.6,4.5,9,6.1,13.3c0.9,2.1,1.8,4.1,2.5,6.1s1.4,3.9,2,5.8
						c1.4,3.7,2.2,7.1,3.1,10.1c0.4,1.5,0.8,2.9,1.2,4.2c0.3,1.3,0.5,2.5,0.8,3.5C918.2,771.4,918.7,773.7,918.5,773.8z"/>
				</g>
			</g>
		</g>
		<g>
			<g>
				<g>
					<path class="st2" d="M880.5,809.2c-0.2-0.3,2-2.3,5.7-5.5s8.8-7.5,14-12.8c5.1-5.3,9-10.7,11.3-14.9c2.4-4.2,3.4-7,3.8-6.9
						c0.3,0.1-0.2,3.1-2.3,7.7c-2,4.5-5.9,10.4-11.1,15.8c-5.3,5.4-10.7,9.6-14.6,12.4C883.3,807.9,880.7,809.5,880.5,809.2z"/>
				</g>
			</g>
		</g>
		<g>
			<g>
				<g>
					<path class="st2" d="M839.7,764.3c-0.5-0.4,5.4-7.8,14.5-15c9-7.3,17.5-11.5,17.8-10.9c0.4,0.6-7.4,5.7-16.2,12.8
						C846.8,758.3,840.2,764.8,839.7,764.3z"/>
				</g>
			</g>
		</g>
		<g>
			<g>
				<g>
					
						<ellipse transform="matrix(0.9589 -0.2837 0.2837 0.9589 -208.4597 225.948)" class="st2" cx="675.8" cy="832.7" rx="1.2" ry="48"/>
				</g>
			</g>
		</g>
		<g>
			<g>
				<g>
					<path class="st2" d="M861.2,773.2c0,0.2-2.7,0.6-7.7,1.2c-5,0.6-12.2,1.4-21.1,2.4c-17.8,1.9-42.5,4.5-69.8,6.9
						s-52.1,3.6-70,3.7c-4.5,0.1-8.6,0-12.1,0c-3.6-0.1-6.6-0.1-9.1-0.3c-5-0.2-7.8-0.4-7.8-0.6c0-0.2,2.8-0.3,7.8-0.3
						c2.5,0,5.6-0.1,9.1-0.2c3.6-0.1,7.6-0.2,12.1-0.3c17.9-0.5,42.6-2,69.9-4.4c27.2-2.4,51.9-4.7,69.8-6.2
						c8.9-0.7,16.2-1.3,21.2-1.6S861.2,773,861.2,773.2z"/>
				</g>
			</g>
		</g>
		<g>
			<g>
				<g>
					
						<ellipse transform="matrix(0.1057 -0.9944 0.9944 0.1057 -46.2929 1591.1959)" class="st2" cx="861.5" cy="821.3" rx="43.5" ry="1.2"/>
				</g>
			</g>
		</g>
		<g>
			<g>
				<g>
					<path class="st2" d="M859.6,878.5c0,0.2-2.3,0.5-6.4,1c-4.1,0.5-10.1,1-17.5,1.6c-14.8,1.2-35.2,2.5-57.8,3.2s-43,0.8-57.9,0.6
						c-7.4-0.1-13.4-0.3-17.5-0.5s-6.4-0.4-6.4-0.5c0-0.2,2.3-0.3,6.4-0.4c4.1-0.1,10.1-0.2,17.5-0.3c14.8-0.2,35.2-0.6,57.8-1.3
						c22.6-0.8,43-1.7,57.7-2.5c7.4-0.4,13.4-0.6,17.5-0.8C857.3,878.4,859.5,878.4,859.6,878.5z"/>
				</g>
			</g>
		</g>
		<g>
			<g>
				<g>
					<path class="st2" d="M623.2,1028.5c0,0.1-0.9-0.1-2.5-0.4c-0.8-0.2-1.8-0.4-3-0.7c-1.2-0.4-2.5-0.8-4-1.3
						c-1.5-0.6-3.1-1.3-4.9-2.1c-0.9-0.4-1.8-0.9-2.7-1.4c-0.5-0.3-0.9-0.5-1.4-0.8c-0.2-0.1-0.5-0.3-0.7-0.4
						c-0.2-0.2-0.5-0.3-0.7-0.5c-3.9-2.4-8-5.6-12.1-9.6s-8-9-11.5-14.8s-6.5-12.4-8.5-19.8c-2-7.3-3-15.3-2.8-23.6
						s1.5-16.8,3.8-25.2c2.4-8.4,5.8-16.3,9.7-23.6s8.4-13.8,13.2-19.7c9.5-11.8,19.8-20.8,28.7-27.8c9-7,16.8-11.9,22.2-15.2
						c2.7-1.6,4.9-2.9,6.3-3.7c1.5-0.8,2.3-1.2,2.3-1.1c0,0.1-0.7,0.6-2,1.5c-1.4,0.9-3.4,2.3-6.1,4c-5.3,3.5-12.8,8.7-21.6,15.8
						s-18.8,16.2-28,27.9c-4.6,5.8-9,12.3-12.8,19.4c-3.8,7.1-7,14.9-9.4,23.1c-2.3,8.2-3.6,16.5-3.8,24.6c-0.2,8,0.7,15.8,2.6,23
						c1.9,7.1,4.7,13.6,8.1,19.3c3.3,5.7,7.1,10.6,11,14.6s7.9,7.2,11.6,9.7c0.2,0.2,0.5,0.3,0.7,0.5c0.2,0.1,0.5,0.3,0.7,0.4
						c0.5,0.3,0.9,0.5,1.4,0.8c0.9,0.5,1.7,1.1,2.6,1.5c1.7,0.8,3.3,1.6,4.7,2.3c1.5,0.6,2.8,1.1,3.9,1.5c1.1,0.4,2.1,0.7,2.9,0.9
						C622.4,1028.1,623.2,1028.4,623.2,1028.5z"/>
				</g>
			</g>
		</g>
		<g>
			<g>
				<g>
					<path class="st2" d="M675.8,978.1c-0.5,0.5-6.2-4.5-13.9-9.7s-14.4-8.7-14.2-9.3s7.6,1.9,15.5,7.3
						C671.2,971.8,676.2,977.7,675.8,978.1z"/>
				</g>
			</g>
		</g>
		<g>
			<g>
				<g>
					<path class="st2" d="M728.2,887.3c0.2,0.3-5.2,3.2-13.9,7.9c-8.6,4.7-20.6,11.2-32.1,20.8c-5.7,4.8-10.6,9.9-14.6,15
						c-2,2.5-3.7,5.1-5.1,7.5c-1.5,2.5-2.7,4.8-3.7,7c-2,4.4-3,8.3-3.4,11c-0.5,2.7-0.5,4.2-0.7,4.2c-0.1,0-0.4-1.5-0.3-4.3
						c0.2-2.8,0.9-6.8,2.8-11.5c0.9-2.3,2.1-4.8,3.5-7.4c1.4-2.6,3.1-5.2,5.1-7.9c3.9-5.3,9-10.6,14.8-15.5s11.9-8.9,17.5-12.3
						c5.7-3.3,10.9-6,15.4-8.2s8.1-3.8,10.6-4.9C726.7,887.7,728.1,887.2,728.2,887.3z"/>
				</g>
			</g>
		</g>
		<g>
			<g>
				<g>
					<path class="st2" d="M677.2,974c0.2,0.3-3.3,2.6-8.3,6.9c-0.6,0.5-1.3,1.1-2,1.7c-0.7,0.6-1.4,1.3-2.1,1.9
						c-1.5,1.3-2.9,2.8-4.4,4.4c-3,3.2-6.1,6.9-9,11s-5.3,8.3-7.3,12.2c-1,2-1.9,3.8-2.6,5.6c-0.4,0.9-0.8,1.8-1.1,2.6
						s-0.6,1.7-0.9,2.4c-2.3,6.2-3.3,10.3-3.7,10.2c-0.3,0,0.1-4.2,2.1-10.7c0.3-0.8,0.5-1.7,0.8-2.5c0.3-0.9,0.7-1.8,1-2.7
						c0.7-1.9,1.6-3.8,2.5-5.9c2-4,4.4-8.3,7.4-12.6c3-4.2,6.2-8,9.4-11.2c1.6-1.6,3.1-3.1,4.7-4.3c0.8-0.6,1.5-1.3,2.2-1.9
						c0.7-0.6,1.4-1.1,2.1-1.6C673.3,975.5,677.1,973.7,677.2,974z"/>
				</g>
			</g>
		</g>
		<g>
			<g>
				<g>
					<path class="st2" d="M923,1055.6c-0.1,0-0.1-0.9,0-2.5c0-1.6,0.2-4,0.3-7.1c0.3-6.1,0.8-15,1.3-26c1-21.9,1.7-52.2,0.8-85.7
						c-0.5-16.7-0.8-32.7-3-46.9c-1.1-7.1-2.7-13.8-4.8-19.8s-4.8-11.3-7.7-15.9c-3-4.5-6.2-8.3-9.3-11.3s-6.1-5.2-8.7-6.8
						c-5.2-3.2-8.5-4.2-8.4-4.4c0-0.1,0.8,0.1,2.4,0.6c1.5,0.5,3.8,1.5,6.5,2.9c2.7,1.5,5.8,3.7,9.1,6.7s6.6,6.7,9.8,11.3
						c3.1,4.6,6,10,8.2,16.2c2.3,6.1,3.9,12.9,5.1,20.1c2.3,14.5,2.7,30.5,3.2,47.2c0.9,33.5-0.1,63.9-1.5,85.8
						c-0.7,11-1.5,19.8-2.1,25.9c-0.3,3.1-0.6,5.4-0.8,7C923.2,1054.7,923,1055.6,923,1055.6z"/>
				</g>
			</g>
		</g>
		<g>
			<g>
				<g>
					<path class="st2" d="M844.5,1057.9c-0.2,0-0.2-2.4-0.1-6.8c0.1-4.4,0.2-10.7,0.2-18.6c-0.1-15.7-1.1-37.3-4.6-61
						c-1.7-11.8-3.9-23-6.1-33.1c-2.3-10.1-4.5-19.2-7.3-26.4c-2.7-7.3-6-12.7-8.7-16.2c-2.7-3.4-4.5-5.1-4.3-5.2
						c0.1-0.1,0.6,0.3,1.5,1c0.5,0.4,1,0.9,1.6,1.5c0.3,0.3,0.6,0.6,1,1c0.3,0.4,0.7,0.8,1,1.2c3,3.3,6.5,8.8,9.5,16.1
						c3.1,7.3,5.4,16.5,7.9,26.6c2.4,10.1,4.6,21.4,6.4,33.3c3.5,23.8,4.2,45.6,3.9,61.4c-0.2,7.9-0.6,14.2-1,18.6
						C845,1055.5,844.7,1057.9,844.5,1057.9z"/>
				</g>
			</g>
		</g>
		<g>
			<g>
				<g>
					<path class="st2" d="M922.2,1060.4c0.1,0.1-0.8,0.8-2.6,1.9c-0.4,0.3-0.9,0.6-1.5,0.9c-0.5,0.3-1.2,0.6-1.8,1
						c-1.3,0.7-2.8,1.5-4.5,2.2c-0.9,0.4-1.8,0.8-2.7,1.2c-0.9,0.4-1.9,0.7-3,1.1c-2.1,0.8-4.3,1.4-6.7,2.1
						c-4.8,1.2-10.1,2.2-15.8,2.7c-5.7,0.4-11.1,0.3-16.1-0.2c-2.5-0.3-4.8-0.6-6.9-1c-1.1-0.2-2.1-0.4-3.1-0.6
						c-1-0.3-1.9-0.5-2.8-0.7c-1.8-0.4-3.4-1-4.8-1.5c-0.7-0.2-1.4-0.5-1.9-0.7c-0.6-0.2-1.1-0.5-1.6-0.7c-1.9-0.8-2.9-1.4-2.9-1.5
						c0.1-0.4,4.5,1.2,11.6,2.7c0.9,0.2,1.8,0.4,2.8,0.6s2,0.3,3.1,0.5c2.1,0.4,4.4,0.5,6.8,0.8c4.8,0.3,10.1,0.4,15.7,0
						c5.5-0.5,10.8-1.4,15.5-2.5c2.3-0.6,4.6-1.1,6.6-1.8c1-0.3,2-0.6,3-0.9c0.9-0.3,1.8-0.7,2.7-1
						C918,1062.3,922,1060.1,922.2,1060.4z"/>
				</g>
			</g>
		</g>
		<g>
			<g>
				<g>
					<path class="st2" d="M775.9,780.1c-0.3,0-1-4.3-1.8-11.4c-0.8-7.1-1.7-16.8-2.4-27.7c-0.7-10.8-1.1-20.6-1.2-27.7
						c-0.1-7.1,0-11.5,0.3-11.5s0.8,4.4,1.4,11.4c0.6,7.1,1.2,16.9,1.9,27.7s1.3,20.6,1.7,27.7C776.1,775.6,776.2,780,775.9,780.1z"
						/>
				</g>
			</g>
		</g>
		<g>
			<g>
				<g>
					
						<ellipse transform="matrix(1.598283e-03 -1 1 1.598283e-03 -417.3275 1451.4072)" class="st3" cx="518.2" cy="934.7" rx="3.3" ry="47.9"/>
				</g>
			</g>
		</g>
		<g>
			<g>
				<g>
					<path class="st3" d="M825.6,935.8c0,1.8-35,4.2-78.2,4.6c-43.2,0.5-78.3-1.2-78.3-3s35-3.1,78.2-3.5
						C790.5,933.5,825.5,934,825.6,935.8z"/>
				</g>
			</g>
		</g>
		<g>
			<g>
				<g>
					<path class="st3" d="M1086.2,924.8c0,1.8-35.3,3-78.7,5c-43.4,1.9-78.7,4-78.9,2.1c-0.2-1.7,34.9-6.7,78.6-8.7
						C1050.8,921.3,1086.2,923.1,1086.2,924.8z"/>
				</g>
			</g>
		</g>
		<g>
			<g>
				<g>
					
						<ellipse transform="matrix(0.9872 -0.1595 0.1595 0.9872 -126.3331 165.675)" class="st2" cx="968.9" cy="869.8" rx="1.2" ry="17.8"/>
				</g>
			</g>
		</g>
		<g>
			<g>
				<g>
					<path class="st2" d="M1018.3,894.2c0.1,0.3-2.1,1.8-6.1,3.3c-1,0.4-2.1,0.8-3.4,1.1c-1.2,0.4-2.5,0.7-3.9,1
						c-2.8,0.5-6,0.9-9.3,0.9s-6.5-0.3-9.3-0.8c-1.4-0.3-2.7-0.5-4-0.9c-1.2-0.3-2.4-0.7-3.4-1.1c-4.1-1.5-6.3-3-6.2-3.2
						c0.2-0.3,2.6,0.6,6.7,1.6c1,0.3,2.1,0.5,3.3,0.7c1.2,0.3,2.5,0.4,3.9,0.7c2.7,0.3,5.7,0.6,8.9,0.6s6.2-0.3,8.9-0.7
						c1.4-0.2,2.7-0.4,3.8-0.7c1.2-0.2,2.3-0.5,3.3-0.8C1015.7,894.8,1018.2,893.9,1018.3,894.2z"/>
				</g>
			</g>
		</g>
		<g>
			<g>
				<g>
					
						<ellipse transform="matrix(0.9985 -5.496708e-02 5.496708e-02 0.9985 -46.4042 57.4011)" class="st2" cx="1020.3" cy="872.3" rx="1.2" ry="14"/>
				</g>
			</g>
		</g>
		<g>
			<g>
				<g>
					<path class="st2" d="M1026.8,872.7c0.1-0.3,1.6,0,3.3-1.2c0.8-0.6,1.5-1.5,1.9-2.8s0.4-2.9,0.1-4.5s-1.1-2.9-2-3.8
						c-0.9-0.9-2.1-1.2-3.1-1.2c-2.1,0-3,1.3-3.3,1.1c-0.1-0.1-0.1-0.5,0.3-1.2c0.4-0.6,1.4-1.4,2.8-1.6c0.7-0.1,1.5-0.2,2.3,0
						s1.7,0.6,2.4,1.2c1.5,1.2,2.5,3,3,5c0.4,2,0.3,4-0.3,5.7c-0.6,1.7-1.9,3.1-3.2,3.6c-1.3,0.6-2.5,0.6-3.2,0.4
						C1027,873.2,1026.7,872.8,1026.8,872.7z"/>
				</g>
			</g>
		</g>
		<g>
			<g>
				<g>
					<path class="st2" d="M1024.9,879.8c0-0.2,0.8-0.2,2.1-0.5c1.3-0.2,3.1-0.7,5.1-1.7c2-1.1,4.2-2.8,5.7-5.3s2.4-5.8,2.1-9.1
						c-0.3-3.4-1.9-6.3-4-8.4c-2.1-2.1-4.6-3.1-6.8-3.4c-2.2-0.3-4.1,0-5.3,0.3c-1.3,0.3-1.9,0.6-2,0.5s0.5-0.7,1.7-1.4
						c1.2-0.6,3.3-1.3,5.8-1.1c2.5,0.1,5.7,1.2,8.2,3.5s4.5,5.8,4.9,9.8s-0.7,7.8-2.6,10.6c-1.9,2.9-4.5,4.7-6.9,5.6
						c-2.3,1-4.4,1.2-5.8,1.1C1025.6,880.2,1024.9,880,1024.9,879.8z"/>
				</g>
			</g>
		</g>
		<g>
			<g>
				<g>
					<path class="st2" d="M1014.7,849.8c0.2,0.6-9.6,3.3-21.9,3.5c-12.4,0.2-22.1-2.3-22-2.9c0.1-0.7,9.9,0.7,22,0.5
						C1004.8,850.7,1014.5,849.1,1014.7,849.8z"/>
				</g>
			</g>
		</g>
		<g>
			<g>
				<g>
					<path class="st2" d="M972.5,842.6c-0.1,0.3-0.6,0.5-1.3,0.7s-1.6,0.5-2.5,1s-1.7,1-2.2,1.5c-0.6,0.4-1,0.8-1.3,0.6
						c-0.3-0.1-0.4-0.7-0.1-1.6c0.3-0.9,1.2-2,2.5-2.6c1.3-0.7,2.7-0.7,3.6-0.5C972.1,841.8,972.6,842.3,972.5,842.6z"/>
				</g>
			</g>
		</g>
		<g>
			<g>
				<g>
					<path class="st2" d="M975.1,737.9c0.2,0.1-0.7,1.4-1.9,3.9c-1.1,2.5-2.4,6.4-2.3,11.3c0,2.4,0.5,5,1.4,7.8
						c0.9,2.7,2.2,5.6,3.4,8.7c1.3,3.1,2.6,6.5,3,10.3c0.2,1.9,0.1,3.9-0.4,5.9s-1.3,3.7-1.9,5.5c-0.3,0.9-0.6,1.7-0.7,2.6
						c-0.2,0.8-0.2,1.7-0.2,2.5c0,1.7,0.5,3.4,0.9,5.1c1,3.4,2.4,6.7,2.8,10.3c0.3,3.6-0.4,6.8-1.2,9.7s-1.7,5.5-2.3,7.9
						c-1.1,4.8-0.7,8.8,0.4,11.3c1.1,2.5,2.4,3.5,2.2,3.6c0,0.1-1.6-0.6-3.1-3.2c-1.4-2.6-2.2-7-1.2-12.1c0.5-2.5,1.3-5.2,2-8
						s1.3-5.9,0.9-8.9c-0.3-3.1-1.7-6.3-2.8-9.8c-0.5-1.8-1-3.7-1.1-5.7c0-1,0-2.1,0.2-3.1s0.5-2,0.8-2.9c0.7-1.9,1.4-3.6,1.8-5.2
						c0.4-1.7,0.5-3.4,0.4-5.1c-0.3-3.4-1.5-6.6-2.7-9.7c-1.2-3.1-2.5-6-3.3-8.9c-0.9-2.9-1.3-5.8-1.2-8.4c0.2-5.2,1.8-9.2,3.2-11.7
						C973.8,738.9,975,737.8,975.1,737.9z"/>
				</g>
			</g>
		</g>
		<g>
			<g>
				<g>
					<path class="st2" d="M1014.2,840c-0.2,0.7-7.4-1.5-16.5-1.8c-9.1-0.4-16.5,1.1-16.6,0.4c-0.1-0.3,1.7-1.1,4.7-1.8s7.3-1.2,12-1
						s9,1.1,11.9,2.1C1012.6,838.8,1014.3,839.7,1014.2,840z"/>
				</g>
			</g>
		</g>
		<g>
			<g>
				<g>
					<path class="st2" d="M992.6,792.8c0.2,0.1,0,0.8,0.4,2.1c0.2,0.7,0.5,1.4,1,2.3c0.5,0.9,1,1.9,1.5,3.2c0.2,0.7,0.5,1.4,0.5,2.2
						c0.1,0.8-0.1,1.7-0.4,2.6c-0.6,1.7-1.7,3-2.6,4.4c-0.4,0.7-0.8,1.4-1,2c-0.2,0.7-0.2,1.4,0,2.1c0.3,1.4,1.5,2.9,2.7,4.4
						s2.6,3.1,3.4,5.1c0.4,1,0.6,2.1,0.5,3.1c0,1-0.3,2-0.6,2.9c-1.3,3.5-3.4,5.8-4.1,8.1c-0.8,2.3-0.6,4.3-0.1,5.5s1.3,1.6,1.2,1.8
						c0,0.1-0.2,0-0.6-0.1c-0.4-0.2-0.9-0.5-1.4-1.2c-1-1.3-1.4-3.8-0.8-6.4c0.6-2.8,2.6-5.4,3.6-8.4c0.5-1.5,0.6-3,0-4.5
						s-1.8-2.9-3-4.4c-0.6-0.8-1.3-1.6-1.8-2.4c-0.6-0.9-1.1-1.8-1.3-3c-0.2-1.1-0.2-2.3,0.1-3.3s0.8-1.9,1.3-2.6
						c1-1.5,2.1-2.7,2.6-3.9s0.4-2.3,0.1-3.5c-0.3-1.2-0.8-2.2-1.2-3.2s-0.6-1.9-0.7-2.7C991.9,793.6,992.5,792.8,992.6,792.8z"/>
				</g>
			</g>
		</g>
		<g>
			<g>
				<g>
					<path class="st2" d="M1006.5,824.6c-0.2-0.1,0.1-0.9,0.3-2.5s0.3-3.9-0.4-6.6c-0.2-0.7-0.4-1.4-0.7-2c-0.3-0.7-0.7-1.4-1-2.3
						c-0.4-0.8-0.6-1.9-0.7-2.9c-0.1-1,0-2.1,0.2-3.1c0.4-2,1-4,1.4-5.9c0.3-1.9,0.2-3.9-0.3-6c-1-4.1-3.2-7.8-4.8-11.4
						c-1.6-3.6-2.5-7.3-2.1-10.4c0.3-3.1,1.7-5.4,2.9-6.6c1.2-1.2,2.2-1.5,2.3-1.4c0.1,0.2-0.7,0.7-1.5,2c-0.9,1.3-1.8,3.4-1.9,6.1
						c-0.1,2.8,0.8,6,2.5,9.4c1.6,3.4,3.9,7.1,5.1,11.7c0.6,2.3,0.7,4.7,0.3,7c-0.4,2.2-1.1,4.1-1.5,5.9c-0.4,1.8-0.4,3.4,0.2,4.8
						c0.3,0.8,0.6,1.5,0.9,2.3c0.3,0.8,0.5,1.6,0.6,2.3c0.6,3.1,0.1,5.6-0.4,7.2C1007.2,823.9,1006.6,824.7,1006.5,824.6z"/>
				</g>
			</g>
		</g>
		<g>
			<g>
				<g>
					<path class="st2" d="M1019.7,854.8c-0.7-0.2-0.3-3.1-1.3-6.4c-0.9-3.3-2.7-5.6-2.3-6.1c0.2-0.2,1,0.1,2,1s2,2.5,2.6,4.5
						s0.5,3.9,0.1,5.2C1020.5,854.2,1020,854.9,1019.7,854.8z"/>
				</g>
			</g>
		</g>
		<g>
			<g>
				<g>
					<path class="st2" d="M746.6,639.5c-1.6-0.1-2.9-0.5-3.8-1c-0.9-0.5-1.3-1.1-1.1-1.4c0.3-0.6,2.5-0.1,5,0"/>
				</g>
			</g>
		</g>
		<g>
			<g>
				<g>
					<path class="st2" d="M793.8,636.9"/>
				</g>
			</g>
		</g>
		<g>
			<g>
				<g>
					<path class="st2" d="M870.8,659.2c-0.6,0.4-8.1-10.4-20.2-21c-12-10.7-23.7-16.7-23.3-17.4c0.1-0.3,3.2,0.9,7.9,3.5
						c2.3,1.3,5.1,3,8,5s6,4.4,9.1,7.1c3.1,2.7,5.8,5.5,8.2,8.1s4.4,5.1,5.9,7.3C869.5,656.1,871,659,870.8,659.2z"/>
				</g>
			</g>
		</g>
	</g>
</g>
<g id="head">
	<path d="M712.1,515.6c3.6-4,9.9,0,18.7-2.1c11.9-2.8,19.5-14.6,24.2-24.9c-0.2,3.7-0.2,14.5,6.9,24.9c9.7,14.2,25,16.9,27.7,17.3
		c-0.1,0.9-1.2,10.1,4.2,13.9c1.6,1.1,4.8,1.2,11.1,1.4c7.1,0.2,7.9-0.2,9.7,0.7c4.2,2.1,6,7.4,6.2,11.1c0.1,1.3,0.4,7.4-3.5,11.1
		c-2.7,2.6-4.7,1.4-9,4.4c-4.2,3-6,6.8-6.2,6.7c-0.3-0.2,4.1-7,4.2-6.9c0.3,0.2-15.9,20-11.1,26.3c2.1,2.8,7.8,2.1,10.4,1.4
		c6.1-1.6,8.7-6.9,9-7.6c0.6,0.2,6.3,2.4,11.1-0.7c4.7-3,6.7-9.7,4.2-15.9c4.7-4.6,6.7-9.2,7.6-11.8c3.6-10.5,0-19.9-1.4-23.5
		c-1.5-4-3.4-7-4.8-9c-0.5-15.5-0.9-30.9-1.4-46.4c-38.1-34.8-53.7-37.9-60.9-33.9c-3,1.7-8.3,6.7-15.9,6.2
		c-6.4-0.4-7.1-4.3-13.2-4.8c-10-0.9-18.8,8.7-22.9,13.2c-3.4,3.8-5.6,7.3-6.9,9.7c-2.4,0.1-13.7,0.6-22.2,9.7
		c-7.3,7.9-10.4,19.9-6.9,29.1c3.4,8.9,10.8,9.1,12.5,18.7c1.1,6.1-1.5,8.4,0.7,14.5c1.6,4.5,5.5,10.6,9.7,10.4
		c4.9-0.3,7.8-8.9,8.3-10.4C717.3,532.8,706.8,521.4,712.1,515.6z"/>
	<path d="M722.4,583.5c-0.8,0.8-6.7,7-5.5,15.9c0.1,0.7,1.5,10.8,10.4,14.5c8,3.3,16.7-0.8,16.6-2.1c0-0.7-2.9-0.2-6.2-2.1
		c-3.8-2.1-5.1-5.6-8.3-12.5C727.9,594.1,725.6,589.4,722.4,583.5z"/>
	<g>
		<g>
			<g>
				<path class="st1" d="M768.2,525.8c-0.2,0.4-2.9-0.3-6.3-3c-1.7-1.4-3.6-3.3-5.2-5.8c-1.6-2.5-3-5.4-3.7-8.8
					c-0.8-3.3-0.6-6.7-0.2-9.5c0.4-2.9,1.1-5.3,1.7-7.3c0.6-2,1.2-3.7,1.9-4.8c0.7-1.1,1.3-1.5,1.5-1.3c0.2,0.1-0.1,0.8-0.3,1.8
					c-0.3,1.1-0.5,2.7-0.8,4.8c-0.3,2.1-0.7,4.5-0.9,7.2s-0.2,5.6,0.4,8.5c1.2,5.9,4.5,10.6,7.2,13.5
					C766.2,524,768.5,525.4,768.2,525.8z"/>
			</g>
		</g>
	</g>
	<g>
		<g>
			<g>
				<path class="st1" d="M712,546c0.9,0.3,1.3,1.4,1.2,2.4c0,1-0.5,2.1-1.4,2.3c-0.4,0.1-0.9-0.1-1.3-0.5c-0.4-0.4-0.6-1.1-0.6-1.9
					c0-0.8,0.3-1.5,0.7-1.9C711.1,546,711.6,545.9,712,546z"/>
			</g>
		</g>
	</g>
	<g>
		<g>
			<g>
				<path class="st1" d="M777,616.4c0.2,0.4-0.7,1.4-2.6,2.6c-1.9,1.1-4.8,2.3-8.1,3c-1.7,0.3-3.3,0.5-4.7,0.5c-0.7,0-1.4,0-2.1-0.1
					c-0.6,0-1.3-0.1-1.9-0.3c-1.2-0.3-2.2-1-2.6-1.7c-0.4-0.7-0.3-1.2-0.1-1.2c0.2-0.1,0.5,0.2,1,0.3c0.4,0.2,1.1,0.3,2,0.3
					c0.5,0,0.9-0.1,1.6-0.1c0.6-0.1,1.2-0.1,1.9-0.2c1.3-0.2,2.8-0.4,4.3-0.7C771.7,617.6,776.5,615.6,777,616.4z"/>
			</g>
		</g>
	</g>
	<g>
		<g>
			<g>
				<path class="st1" d="M778.8,616.9c0.2,0.4-0.7,1.5-2.7,2.9s-5,2.9-8.6,3.7c-3.6,0.9-6.9,1-9.4,0.7c-1.2-0.2-2.3-0.5-2.9-0.9
					c-0.6-0.4-0.8-0.8-0.7-1c0.2-0.4,1.6-0.1,3.7-0.4c2.2-0.3,5.3-0.7,8.5-1.5C773.3,618.8,778.2,616.2,778.8,616.9z"/>
			</g>
		</g>
	</g>
	<g>
		<g>
			<g>
				<path class="st1" d="M779.7,616.5c0.2,0.1,0.2,0.6-0.1,1.3s-0.8,1.7-1.8,2.7s-2.3,1.9-3.8,2.7s-3.3,1.5-5.1,2.1
					c-3.7,1.2-7.4,1.7-10,1.5c-1.3-0.1-2.6-0.4-3.2-1c-0.6-0.6-0.7-1.1-0.6-1.2c0.2-0.2,0.6,0,1.2,0.1c0.6,0.1,1.4,0.1,2.5-0.1
					c2.4-0.4,5.6-1.1,9-2.2c3.5-1.1,6.6-2.3,8.5-3.6C778.4,617.4,779.3,616.3,779.7,616.5z"/>
			</g>
		</g>
	</g>
	<g>
		<g>
			<g>
				<path class="st1" d="M801.4,578.1c0.2,0,0.6,2.7-0.6,7.4c-0.6,2.3-1.7,5.1-3.2,8.1s-3.6,6.3-5.9,9.9c-2.3,3.5-5,7.5-9.1,10.8
					c-2.1,1.6-4.4,3.1-7,4c-1.3,0.6-2.7,0.9-4,1.3c-1.4,0.2-2.8,0.6-4.3,0.7c-2.9,0.3-5.9,0.2-8.9-0.3c-3-0.4-6-1.3-8.9-2.5
					s-5.8-2.7-8.4-4.6c-1.4-0.9-2.6-2-3.9-3.1c-0.6-0.6-1.2-1.1-1.8-1.7c-0.6-0.6-1.1-1.2-1.7-1.8c-2.2-2.5-4.2-5.1-5.9-7.8
					s-3.2-5.5-4.5-8.3c-2.6-5.6-4.4-11.3-5.9-16.7c-2.9-10.9-4.6-20.8-5.7-29.2c-1.1-8.4-1.4-15.3-1.6-20c-0.1-4.7,0.1-7.3,0.3-7.4
					c0.2,0,0.5,2.6,1,7.3s1.2,11.5,2.6,19.7c1.3,8.3,3.3,18.1,6.3,28.8c1.5,5.3,3.4,10.8,5.9,16.2c1.3,2.7,2.7,5.4,4.3,8
					s3.5,5.1,5.6,7.4c8.2,9.4,20.3,14.1,30.9,13.2c1.3,0,2.6-0.4,3.9-0.5c1.2-0.4,2.5-0.6,3.6-1.1c2.4-0.8,4.4-2.1,6.3-3.5
					c3.7-2.9,6.4-6.6,8.8-10c2.4-3.5,4.5-6.6,6.2-9.5s2.9-5.4,3.6-7.6C801.2,580.7,801.2,578.1,801.4,578.1z"/>
			</g>
		</g>
	</g>
	<g>
		<g>
			<g>
				<path class="st1" d="M805,574.5c0-0.2,0.8-0.2,2.1-0.5c1.2-0.2,3-0.7,4.9-1.9c1.8-1.2,3.6-3.2,4.7-5.9c1.1-2.7,1.6-6,1.4-9.4
					c-0.2-3.4-1.3-6.5-3.3-8.4c-1.9-1.9-4.5-2.6-6.4-2.1c-1,0.2-1.8,0.7-2.4,1.2c-0.6,0.5-1.1,1.1-1.4,1.6c-0.6,1-0.7,1.8-1,1.8
					c-0.2,0-0.6-0.8-0.2-2.3c0.3-1.4,1.6-3.5,4.3-4.6s6.5-0.3,9.2,2.1c1.4,1.2,2.5,2.8,3.2,4.6s1.1,3.7,1.3,5.7
					c0.3,3.9-0.4,7.7-1.9,10.9c-0.7,1.6-1.7,2.9-2.8,4.1c-1.1,1.1-2.3,2-3.5,2.6c-2.4,1.2-4.6,1.4-6,1.2
					C805.6,575.1,804.9,574.7,805,574.5z"/>
			</g>
		</g>
	</g>
	<g>
		<g>
			<g>
				<path class="st1" d="M752.1,643.6c-0.4-0.3,0.1-1.7,0.6-3.9s0.9-5.3,0.7-8.7c-0.2-3.5-0.7-6.6-0.9-9c-0.3-2.4-0.3-3.9,0.2-4
					c0.4-0.1,1.2,1.2,2.1,3.5c0.8,2.3,1.8,5.6,2,9.4c0.2,3.8-0.6,7.4-1.8,9.7C753.7,642.9,752.4,643.9,752.1,643.6z"/>
			</g>
		</g>
	</g>
	<g>
		<g>
			<g>
				<path class="st1" d="M786.4,637.9c-0.4,0.2-1.5-0.9-2.7-3s-2.5-5.3-3-9s-0.3-7.1,0.3-9.5s1.3-3.7,1.7-3.6
					c0.9,0.2,0.2,5.9,1.2,12.6C784.9,632.2,787.2,637.4,786.4,637.9z"/>
			</g>
		</g>
	</g>
	<g>
		<g>
			<g>
				<path class="st1" d="M757,586.9c-0.1,0.2-0.8,0.1-2.1-0.3c-1.3-0.4-3.1-1.1-5.2-2.5c-1-0.7-2.1-1.6-3.1-2.8s-1.8-2.8-2.2-4.5
					s-0.5-3.4-0.6-5.1c0-1.7-0.1-3.4-0.1-5.2c-0.3-14.3,0.3-25.9,1.2-25.9s1.8,11.6,2.1,25.9c0,1.8,0,3.5,0.1,5.2
					c0,1.7,0.1,3.2,0.3,4.5c0.5,2.7,2.1,4.6,3.7,6.1c1.7,1.4,3.3,2.4,4.4,3.2C756.5,586.2,757.1,586.7,757,586.9z"/>
			</g>
		</g>
	</g>
	<g>
		<g>
			<g>
				<path class="st1" d="M774.2,584.7c0.4,0.3-0.1,1.6-1.2,3.6c-1.1,2-3,4.7-6,6.8c-3.1,2.2-6.6,2.9-9.1,2.5s-3.7-1.5-3.5-1.9
					s1.5-0.2,3.5-0.5c2-0.2,4.7-1.1,7.2-2.9c2.5-1.8,4.5-4,6.1-5.6C772.7,585.3,773.9,584.4,774.2,584.7z"/>
			</g>
		</g>
	</g>
	<g>
		<g>
			<g>
				<path class="st2" d="M734.7,535c-0.3,0.3-1.2-0.3-2.6-0.9c-0.7-0.3-1.6-0.6-2.6-0.8s-2.1-0.4-3.3-0.4s-2.3,0.1-3.3,0.3
					s-1.9,0.5-2.6,0.8c-1.5,0.6-2.4,1.1-2.7,0.8c-0.2-0.2,0.3-1.2,1.8-2.3c0.7-0.5,1.7-1,2.9-1.4s2.5-0.6,3.9-0.6s2.7,0.3,3.9,0.7
					c1.1,0.4,2.1,0.9,2.9,1.5C734.4,533.7,734.9,534.8,734.7,535z"/>
			</g>
		</g>
	</g>
	<g>
		<g>
			<g>
				<path class="st2" d="M782.9,538.9c-0.2,0.3-1.4-0.5-3.3-1.6c-1.8-1.1-4.4-2.6-7.4-3.3c-3-0.6-5.8-0.1-7.7,0.7s-2.8,1.8-3.1,1.6
					c-0.1-0.1-0.1-0.5,0.3-1.1c0.3-0.6,1-1.3,2-2c1.9-1.4,5.4-2.4,9-1.6c3.6,0.8,6.3,2.8,7.9,4.3
					C782.4,537.5,783.2,538.7,782.9,538.9z"/>
			</g>
		</g>
	</g>
	<g>
		<g>
			<g>
				<path class="st2" d="M734.4,548.2c-0.2,0.3-1,0-2.1-0.3s-2.7-0.5-4.4-0.4s-3.2,0.5-4.4,1c-1.1,0.4-1.8,0.8-2.1,0.5
					c-0.2-0.2,0.1-1.1,1.2-2c1.1-0.9,2.9-1.8,5.1-1.9c2.2-0.1,4.1,0.5,5.3,1.3C734.2,547.2,734.6,548,734.4,548.2z"/>
			</g>
		</g>
	</g>
	<g>
		<g>
			<g>
				<path class="st2" d="M731.8,559.2c-0.2,0.3-0.8,0.3-1.7-0.2s-1.9-1.4-2.6-2.8c-0.7-1.4-0.8-2.8-0.6-3.8s0.6-1.5,0.9-1.5
					c0.7,0.1,0.8,2.1,1.9,4.2C730.6,557.2,732.1,558.6,731.8,559.2z"/>
			</g>
		</g>
	</g>
	<g>
		<g>
			<g>
				<path class="st2" d="M775.4,558.7c-0.2,0.3-0.9,0.2-1.9-0.4c-1-0.6-2.1-1.7-2.9-3.3c-0.8-1.6-1-3.2-0.9-4.3s0.5-1.8,0.8-1.7
					c0.7,0.1,1,2.5,2.2,5C774,556.4,775.8,558.1,775.4,558.7z"/>
			</g>
		</g>
	</g>
	<g>
		<g>
			<g>
				<path class="st2" d="M778.8,548c-0.5,0.5-3.2-1.5-7.1-2.3c-3.9-0.9-7.2-0.1-7.4-0.8c-0.1-0.3,0.6-0.9,2.1-1.4
					c1.4-0.5,3.6-0.7,5.9-0.2c2.3,0.5,4.2,1.5,5.3,2.5C778.6,546.9,779.1,547.8,778.8,548z"/>
			</g>
		</g>
	</g>
	<g>
		<g>
			<g>
				<path class="st2" d="M718.2,575.2c0,0.2-0.5,0.3-1.4,0.2c-0.9,0-2.2-0.3-3.7-1s-3.1-1.8-4.6-3.4c-1.5-1.6-2.7-3.7-3.3-6.2
					c-0.5-2.5-0.3-5,0.3-7.1s1.6-3.8,2.7-5c1.1-1.2,2.1-2,2.9-2.5c0.8-0.4,1.3-0.5,1.4-0.4c0.2,0.3-1.3,1.4-2.9,3.9
					c-0.8,1.2-1.5,2.8-1.9,4.6s-0.5,3.9-0.1,5.9c0.5,2,1.5,3.9,2.6,5.3c1.2,1.4,2.5,2.5,3.7,3.3
					C716.4,574.5,718.2,574.9,718.2,575.2z"/>
			</g>
		</g>
	</g>
	<path class="st2" d="M747.7,636.1c2.6,0.1,4.8-0.2,5,0.4c0.1,0.3-0.3,0.8-1.2,1.3s-2.3,0.8-3.9,0.7"/>
	<path class="st2" d="M794.8,635.9c0,0.7-2.4,1.2-5.4,0.7s-5-1.9-4.8-2.6c0.2-0.6,2.5-0.3,5.2,0.2
		C792.6,634.7,794.8,635.2,794.8,635.9"/>
</g>
<g id="background">
	<path d="M600.8,480.4H304.3c-5.8,0-10.4-4.7-10.4-10.4l0,0c0-5.8,4.7-10.4,10.4-10.4h296.5c5.8,0,10.4,4.7,10.4,10.4l4-0.5
		C615.2,475.2,606.5,480.4,600.8,480.4z"/>
	<path d="M834.7,136.8H653.9c-1.4,0-2.5-1.1-2.5-2.5v-19c0-1.4,1.1-2.5,2.5-2.5h180.8c1.4,0,2.5,1.1,2.5,2.5v19
		C837.1,135.7,836,136.8,834.7,136.8z"/>
	<g>
		<g>
			<g>
				<path class="st1" d="M1028.8,563.9c-0.5,0-0.8-6.1-1.1-15.9c-0.3-9.8-0.7-23.4-1.1-38.4c-0.5-15-0.9-28.6-1.2-38.4
					c-0.3-9.8-0.3-15.9,0.2-16c0.4,0,1.3,6,2.1,15.8c0.8,9.8,1.7,23.4,2.1,38.4s0.4,28.6,0.2,38.5
					C1029.7,557.8,1029.3,563.9,1028.8,563.9z"/>
			</g>
		</g>
	</g>
	<g>
		<g>
			<g>
				<ellipse class="st1" cx="915.7" cy="576.4" rx="66.4" ry="1.6"/>
			</g>
		</g>
	</g>
	<g>
		<g>
			<g>
				<path class="st1" d="M946.8,448.1c-0.4,0-1.1-6.1-1.8-16s-1.4-23.6-2-38.8c-0.6-15.1-0.9-28.9-1-38.8s0.1-16.1,0.5-16.1
					s1.1,6.1,1.8,16s1.4,23.6,2,38.7s0.9,28.8,1,38.8C947.4,442,947.3,448.1,946.8,448.1z"/>
			</g>
		</g>
	</g>
	<g>
		<g>
			<g>
				<ellipse class="st1" cx="1026.5" cy="446.2" rx="76.4" ry="1.6"/>
			</g>
		</g>
	</g>
	<g>
		<g>
			<g>
				<ellipse class="st1" cx="1100" cy="397.3" rx="1.6" ry="47.8"/>
			</g>
		</g>
	</g>
	<g>
		<g>
			<g>
				<ellipse class="st1" cx="1020.9" cy="326.3" rx="79" ry="1.6"/>
			</g>
		</g>
	</g>
	<g>
		<g>
			<g>
				<ellipse class="st1" cx="1023.5" cy="350.5" rx="74.4" ry="1.6"/>
			</g>
		</g>
	</g>
	<g>
		<g>
			<g>
				<path class="st1" d="M955.3,339.5c0.1,0,0.2-0.1,0.3-0.1s0.1,0,0.1-0.1l0,0h-0.1c0,0,0,0-0.1,0c-0.1,0.1-0.1,0.2-0.1,0
					c0-0.1-0.2-0.4-0.4-0.5c0,0-0.1-0.1-0.2-0.1l0,0c0,0,0,0-0.1-0.1c0,0-0.1,0,0,0c0,0,0.1,0,0.2,0c0.1,0,0.3,0,0.4,0
					c0.2,0,0.3,0,0.3-0.1l0,0v0.1c0,0-0.1,0.1-0.2,0.2v0.1l0,0l0,0l0,0c0-0.1,0.2,0.5,0.1,0.3l0,0l0,0l0,0c0-0.1,0-0.1,0-0.1
					s0.1,0.1,0.2,0.2c0.1,0.1,0.2,0.1,0.3,0.2l0,0c-0.1,0-0.2,0.2-0.4,0.3c-0.3,0.3-0.5,0.7-0.9,0.9c-0.4,0.2-1,0.1-1.4-0.6
					c-0.2-0.4-0.3-0.9-0.2-1.5c0.1-0.3,0.2-0.6,0.4-1c0.2-0.3,0.7-0.7,1.2-0.9c0.3-0.1,0.5-0.1,0.8-0.1h0.2l0,0h0.2l0,0l0,0l0,0
					l0.2,0.1c1.3,0.5,1.4,1.4,1.4,1.9s-0.2,0.8-0.3,1.1c-0.2,0.3-0.4,0.4-0.6,0.6c-0.2,0.2-0.5,0.3-1,0.4c-0.2,0-0.4,0-0.6-0.2
					c-0.2-0.1-0.2-0.2-0.3-0.3C954.8,339.7,955.1,339.6,955.3,339.5z"/>
			</g>
		</g>
	</g>
	<g>
		<g>
			<g>
				<path class="st1" d="M963.1,339.3c0.2-0.3,0.7-0.5,1-0.8c0.3-0.2,0.6-0.7,0.5-0.8l0.1,1.4l0.1-0.1v0.1c-0.1,0.2-0.1,0.1-0.1,0.1
					c-0.1,0-0.2-0.1-0.3-0.1c-0.2,0-0.4,0-0.6-0.1c-0.5,0-0.8,0.4-1.2,0.3c-0.2,0-0.4-0.2-0.6-0.5c-0.1-0.3-0.1-0.8,0.1-1.4
					c0.3-0.6,0.9-1,1.6-1.3c0.7-0.2,1.7-0.4,2.8,0.3c0.5,0.3,0.8,0.7,1,1.2l0.4,0.8l-0.4,0.7c-0.5,0.8-1.2,1.3-1.8,1.4
					c-0.6,0.2-1.2,0.1-1.7-0.1C963.1,340.2,962.9,339.6,963.1,339.3z"/>
			</g>
		</g>
	</g>
	<g>
		<g>
			<g>
				<path class="st1" d="M973.2,339.3c0.1-0.1,0.3-0.2,0.4-0.4c0.1-0.1,0.2-0.3,0.2-0.4s0-0.3,0-0.4l0,0c0,0,0.1,0,0.1,0.1
					c0.1,0,0.2,0.1,0.2,0.1c0.2,0,0.2,0,0.1,0l0.1,0.5c0,0,0,0.1-0.1,0.2c0,0.1,0,0.2,0,0.2l0,0l0,0c0,0,0,0-0.1-0.1
					s-0.2-0.2-0.2-0.1h0.1c0.1,0,0,0,0,0s-0.1,0.1-0.1,0.2c0,0.2,0,0.4,0,0.6c0,0.1,0,0.2,0.1,0.3c0,0.1,0.1,0.2,0.1,0.3
					c0,0.1-0.1,0.2-0.1,0.3c-0.1,0.1-0.2,0.2-0.4,0.2c-0.4,0.1-0.9,0-1.4-0.4s-1-1.2-0.9-2.3c0-0.5,0.4-1.1,0.8-1.5
					c0.4-0.4,0.9-0.7,1.5-0.8c0.7-0.2,1.6-0.1,2.3,0.4l0.3,0.2l0.2,0.2c0.3,0.5,0.4,1.2,0.3,1.7c-0.1,0.5-0.4,0.9-0.6,1.1
					c-0.5,0.5-1.1,0.7-1.6,0.7s-1-0.2-1.1-0.5C973,339.6,973.1,339.4,973.2,339.3z"/>
			</g>
		</g>
	</g>
	<g>
		<g>
			<g>
				<path class="st1" d="M983,396.5c0-0.2,0.5-0.5,1.1-1.1s1.3-1.6,1.5-3.1c0.1-0.7,0.2-1.6,0.1-2.5c0-0.4-0.1-0.9-0.3-1.3
					c-0.1-0.5-0.3-0.9-0.5-1.4c-0.8-2-2.2-4.2-2.9-7.1c-0.4-1.4-0.4-3.1-0.2-4.5c0.3-1.5,0.8-2.8,1.5-3.9c1.4-2.3,3.3-3.7,5.1-4.5
					s3.4-1,4.4-0.8c1.1,0.1,1.6,0.4,1.6,0.6c0,0.5-2.3,0.4-4.9,2.2c-1.3,0.9-2.7,2.2-3.6,4c-0.5,0.9-0.8,1.9-1,2.9
					c-0.1,1-0.1,2.1,0.2,3.2c0.6,2.3,1.8,4.5,2.6,6.9c0.2,0.6,0.4,1.2,0.5,1.8c0.1,0.6,0.2,1.3,0.2,1.9c0,1.2-0.2,2.3-0.5,3.2
					c-0.7,1.9-2,3.2-3.1,3.5C983.6,396.9,983,396.7,983,396.5z"/>
			</g>
		</g>
	</g>
	<g>
		<g>
			<g>
				<path class="st1" d="M1000.9,423.3c0.1,0.2-0.2,0.7-1.2,1.3c-0.9,0.5-2.5,1.1-4.5,1c-2,0-4.4-0.7-6.5-2.4
					c-2.1-1.7-3.8-4.2-4.5-7.2c-0.4-1.5-0.5-2.9-0.5-4.3s0.3-2.7,0.5-3.9c0.5-2.3,0.9-4.2,0.7-5.7c-0.1-1.6-0.7-2.7-1.2-3.4
					c-0.5-0.7-1-1.1-0.9-1.3c0.1-0.2,0.7-0.3,1.7,0.4c1,0.6,2.1,2,2.6,3.9c0.6,2,0.3,4.4,0,6.7c-0.2,1.2-0.3,2.3-0.3,3.4
					s0.2,2.3,0.5,3.5c0.6,2.3,1.8,4.3,3.3,5.7c1.5,1.3,3.3,2.1,4.8,2.4C998.7,423.9,1000.7,422.8,1000.9,423.3z"/>
			</g>
		</g>
	</g>
	<g>
		<g>
			<g>
				<path class="st1" d="M1078.6,394.1c0,0.2-0.6,0.4-1.8,0.1c-1.1-0.3-2.7-1.4-3.5-3.5c-0.4-1-0.7-2.1-0.6-3.4c0-0.6,0.1-1.3,0.2-2
					c0.2-0.6,0.4-1.2,0.6-1.8c0.9-2.4,2.4-4.7,3-7c0.6-2.2-0.1-4.4-1.3-6.2c-1.2-1.7-2.8-3-4.2-3.8c-3-1.6-5.3-1.6-5.3-2.1
					c0-0.2,0.5-0.5,1.6-0.6s2.7,0,4.6,0.6c1.9,0.7,4,2,5.7,4.1c0.8,1.1,1.6,2.4,2,3.9c0.1,0.4,0.2,0.8,0.2,1.2
					c0,0.4,0.1,0.8,0.1,1.2c0,0.8-0.1,1.7-0.3,2.4c-0.4,1.6-1,2.9-1.7,4.1c-0.6,1.2-1.2,2.3-1.7,3.3c-0.2,0.5-0.4,1-0.6,1.5
					c-0.1,0.4-0.3,0.9-0.3,1.3c-0.1,0.9-0.1,1.8,0.1,2.5c0.3,1.5,1.2,2.5,1.9,3.1C1078.1,393.6,1078.7,393.9,1078.6,394.1z"/>
			</g>
		</g>
	</g>
	<g>
		<g>
			<g>
				<path class="st1" d="M1058.3,420.9c0.2-0.4,2.4,0.5,5.8,0c1.7-0.3,3.7-0.9,5.5-2.1s3.3-3.1,4.1-5.5c0.4-1.2,0.6-2.4,0.7-3.6
					s-0.1-2.3-0.3-3.5c-0.4-2.4-0.8-4.9-0.2-7c0.6-2.1,1.9-3.5,2.9-4c1.1-0.6,1.7-0.5,1.8-0.3c0.1,0.2-0.4,0.6-1,1.3
					c-0.6,0.7-1.3,1.9-1.4,3.5c-0.2,1.6,0.3,3.5,0.9,6c0.3,1.2,0.5,2.7,0.5,4.2s-0.3,3.1-0.8,4.6c-1.1,3-3.2,5.5-5.6,6.9
					s-4.9,1.9-6.9,1.8c-2,0-3.6-0.6-4.6-1.1C1058.6,421.6,1058.2,421.1,1058.3,420.9z"/>
			</g>
		</g>
	</g>
	<g>
		<g>
			<g>
				<ellipse class="st1" cx="631.9" cy="364.4" rx="1.6" ry="44"/>
			</g>
		</g>
	</g>
	<g>
		<g>
			<g>
				<ellipse class="st1" cx="724.4" cy="418.5" rx="84.5" ry="1.6"/>
			</g>
		</g>
	</g>
	<g>
		<g>
			<g>
				<ellipse class="st1" cx="804.7" cy="369.4" rx="1.6" ry="49.8"/>
			</g>
		</g>
	</g>
	<g>
		<g>
			<g>
				<ellipse class="st1" cx="715.8" cy="317.4" rx="80.2" ry="1.6"/>
			</g>
		</g>
	</g>
	<g>
		<g>
			<g>
				<path class="st1" d="M714.9,372.5c0.2-0.1,0.6,0.8,1.7,1.8c1.1,1,3.1,2.1,5.7,2c1.3,0,2.7-0.3,3.9-1.1c1.2-0.7,2.3-2,3-3.4
					c1.4-3,1.2-7.2-0.8-10.6c-0.5-0.8-1.1-1.5-1.7-2c-0.6-0.5-1.4-0.8-2.2-0.9c-1.7-0.3-3.5,0.1-5,0.8c-3.1,1.5-5,4.2-5.8,6.7
					c-0.4,1.2-0.5,2.5-0.4,3.5s0.4,1.9,0.8,2.5c0.7,1.3,1.7,1.5,1.6,1.7c0,0.1-0.3,0.2-0.8,0.1s-1.2-0.4-1.8-1.1
					c-0.7-0.7-1.2-1.7-1.6-2.9c-0.3-1.3-0.4-2.8-0.1-4.4c0.3-1.6,1-3.3,2.1-4.8c1.1-1.6,2.6-3,4.6-4c1.9-1,4.3-1.6,6.8-1.3
					c1.2,0.2,2.6,0.6,3.7,1.4c1.1,0.8,1.9,1.9,2.6,2.9c2.6,4.4,2.7,9.6,0.7,13.6c-1,2-2.5,3.6-4.4,4.5c-1.8,0.9-3.7,1.1-5.3,1
					c-3.3-0.3-5.6-2-6.6-3.5C714.6,373.6,714.7,372.5,714.9,372.5z"/>
			</g>
		</g>
	</g>
	<g>
		<g>
			<g>
				<path class="st2" d="M701.3,349.4c0.3,0.6-2.9,2.5-5.6,5.9c-2.8,3.3-4.1,6.8-4.7,6.6c-0.3-0.1-0.4-1.1,0-2.7s1.3-3.6,2.9-5.5
					c1.6-1.9,3.4-3.2,4.9-3.9C700.2,349.2,701.2,349.1,701.3,349.4z"/>
			</g>
		</g>
	</g>
	<g>
		<g>
			<g>
				<path class="st2" d="M700.3,350.1c-0.5,0.5-2.8-1-4.5-3.9c-1.8-2.9-2-5.6-1.4-5.8c0.7-0.2,1.9,2,3.5,4.5
					C699.4,347.5,700.8,349.6,700.3,350.1z"/>
			</g>
		</g>
	</g>
	<g>
		<g>
			<g>
				<path class="st2" d="M715,343.3c-0.3,0.1-0.8-1-1.6-2.8c-0.4-0.9-0.9-1.9-1.4-3.1c-0.3-0.6-0.6-1.2-0.9-1.8
					c-0.2-0.3-0.3-0.6-0.4-0.8c-0.2-0.2-0.2-0.2-0.3-0.3c-0.1,0-0.1,0-0.2,0c-0.1,0-0.3,0.1-0.6,0.2c-0.5,0.2-1,0.4-1.6,0.7
					c-7.2,3.1-12.9,6-13.3,5.4c-0.4-0.6,4.9-4.5,12.3-7.7c0.6-0.2,1.1-0.5,1.7-0.7c0.3-0.1,0.7-0.2,1.1-0.3c0.5-0.1,1,0,1.4,0.2
					c0.6,0.2,1.2,0.8,1.4,1.3c0.3,0.4,0.4,0.8,0.5,1.2c0.3,0.7,0.5,1.4,0.7,2c0.4,1.3,0.7,2.4,0.9,3.4
					C715.2,342,715.2,343.2,715,343.3z"/>
			</g>
		</g>
	</g>
	<g>
		<g>
			<path class="st4" d="M715.1,340.4"/>
		</g>
	</g>
	<g>
		<g>
			<g>
				<path class="st2" d="M727.3,341c-0.2,0.7-3,0.4-6.4,0.5s-6.2,0.4-6.4-0.3c-0.2-0.6,2.6-2.1,6.4-2.2
					C724.6,339,727.5,340.3,727.3,341z"/>
			</g>
		</g>
	</g>
	<g>
		<g>
			<g>
				<path class="st2" d="M743.5,345.9c-0.1-0.1,0.1-0.6,0.5-1.3c0.4-0.7,1-1.7,1.4-2.9c0.4-1.2,0.1-2.5-1.2-3.4
					c-0.6-0.5-1.5-0.9-2.4-1.3c-1-0.4-1.9-0.9-2.9-1.3c-2-0.8-3.9-1.2-5.6-1.1c-1.6,0.1-3,0.9-3.9,1.8s-1.3,1.9-1.5,2.6
					s-0.1,1.2-0.3,1.2c-0.1,0-0.5-0.4-0.6-1.3s0.1-2.3,1.2-3.7c1-1.3,2.7-2.6,5-2.9c2.2-0.3,4.6,0.2,6.7,1c1.1,0.4,2.1,0.9,3.1,1.4
					c0.9,0.5,1.9,1,2.8,1.7c0.9,0.7,1.6,1.8,1.8,2.9s0,2.1-0.4,2.9c-0.7,1.5-1.6,2.4-2.3,2.9C744.1,345.8,743.7,346,743.5,345.9z"/>
			</g>
		</g>
	</g>
	<g>
		<g>
			<g>
				<path class="st2" d="M750.3,361.1c-0.7,0.1-1.9-3.4-3.8-7.7c-1.8-4.2-3.5-7.6-2.9-8c0.5-0.4,3.3,2.6,5.2,7.1
					C750.7,357,751,361,750.3,361.1z"/>
			</g>
		</g>
	</g>
	<g>
		<g>
			<g>
				<path class="st2" d="M751.7,377.6c0-0.3,1.7-0.6,4.4-0.8c0.3,0,0.7,0,1-0.1h0.2c0.1,0,0.1,0,0.1,0c0.1,0,0.1-0.1,0.2-0.1
					c0.1-0.1,0.2-0.2,0.2-0.4c0-0.1,0-0.7,0-1.1c-0.1-1.8-0.2-3.7-0.4-5.7s-0.5-3.9-0.8-5.6c-0.2-0.8-0.4-1.4-0.7-1.8
					s-0.8-0.6-1.4-0.7c-1.2-0.2-2.4-0.2-3.2-0.6s-1-0.9-0.9-1s0.5,0.1,1.1,0.1c0.7,0.1,1.6-0.2,3.1-0.2c0.4,0,0.8,0,1.3,0.2
					c0.5,0.1,1,0.4,1.4,0.8c0.8,0.8,1.2,1.8,1.5,2.7c0.5,1.8,0.9,3.8,1.1,5.9c0.2,2.1,0.3,4.1,0.2,5.9c0,0.5,0,0.8-0.1,1.5
					s-0.5,1.3-1.1,1.6c-0.3,0.2-0.6,0.3-0.9,0.3c-0.1,0-0.3,0-0.4,0.1c-0.1,0-0.2,0-0.3,0c-0.4,0-0.8-0.1-1.1-0.1
					C753.3,378.3,751.7,378,751.7,377.6z"/>
			</g>
		</g>
	</g>
	<g>
		<g>
			<g>
				<path class="st2" d="M746.5,387.5c-0.5-0.5,1-2.7,2.5-5.5c1.6-2.8,2.7-5.2,3.4-5.1c0.6,0.1,0.5,3.1-1.2,6.2
					C749.4,386.3,746.9,388,746.5,387.5z"/>
			</g>
		</g>
	</g>
	<g>
		<g>
			<g>
				<path class="st2" d="M749.1,393.2c0.4,0.6-4.4,4-10.6,7.6c-0.8,0.4-1.5,0.9-2.3,1.3c-0.4,0.2-0.7,0.4-1.2,0.6s-1,0.4-1.6,0.4
					c-0.7,0-1.3-0.3-1.7-0.7c-0.4-0.4-0.6-0.8-0.8-1.2c-0.3-0.7-0.5-1.2-0.8-1.8c-0.9-2.2-1.3-3.6-1-3.8c0.3-0.2,1.2,1,2.5,3
					c0.3,0.5,0.6,1,1,1.6c0.2,0.2,0.3,0.4,0.5,0.5c0.1,0.1,0.2,0.1,0.3,0.1c0.2,0,0.9-0.4,1.6-0.8c0.7-0.4,1.5-0.9,2.2-1.3
					C743.5,395.1,748.8,392.6,749.1,393.2z"/>
			</g>
		</g>
	</g>
	<g>
		<g>
			<g>
				
					<ellipse transform="matrix(0.9133 -0.4072 0.4072 0.9133 -94.1657 337.9795)" class="st2" cx="746.9" cy="390.2" rx="1.2" ry="2.7"/>
			</g>
		</g>
	</g>
	<g>
		<g>
			<g>
				<path class="st2" d="M728.7,397.7c0.1,0.6-4.1,1.7-9.3,0.9c-5.2-0.8-8.9-3.1-8.6-3.7c0.3-0.6,4.1,0.5,9,1.3
					C724.6,396.9,728.6,397,728.7,397.7z"/>
			</g>
		</g>
	</g>
	<g>
		<g>
			<g>
				
					<ellipse transform="matrix(0.5098 -0.8603 0.8603 0.5098 4.6531 804.6954)" class="st2" cx="708.4" cy="398.3" rx="4.2" ry="1.2"/>
			</g>
		</g>
	</g>
	<g>
		<g>
			<g>
				<path class="st2" d="M692.3,377.3c0.1,0.1,0.1,0.6-0.6,1.3c-0.7,0.6-2,1.2-3.7,1c-0.8-0.1-1.7-0.4-2.5-1
					c-0.9-0.6-1.5-1.3-2.1-2.2c-1.1-1.8-1.6-4-2.1-6.1c-0.2-1.1-0.4-2.1-0.6-3.1c-0.1-0.5-0.2-1-0.3-1.5s-0.2-1.1,0-1.8
					c0.1-0.7,0.4-1.3,0.9-1.8s1.1-0.7,1.6-0.9c1-0.2,1.9-0.1,2.6-0.1c1.4,0.2,2.5,0.3,3.2,0.2c0.7-0.1,1.1-0.3,1.2-0.2
					c0.1,0.1-0.1,0.6-0.9,1.1c-0.8,0.5-2.1,0.6-3.5,0.7c-0.7,0-1.4,0.1-2,0.3c-0.3,0.1-0.5,0.2-0.6,0.4c-0.1,0.2-0.2,0.4-0.2,0.6
					c-0.1,0.5,0.2,1.5,0.4,2.5s0.4,2,0.7,3.1c0.4,2.1,0.8,4,1.6,5.5c0.4,0.7,0.9,1.3,1.4,1.7c0.5,0.4,1.1,0.7,1.7,0.9
					c1.2,0.4,2.2,0.2,2.8-0.1C691.8,377.5,692.2,377.2,692.3,377.3z"/>
			</g>
		</g>
	</g>
	<g>
		<g>
			<g>
				<path class="st2" d="M698.6,388.4c-0.4,0.5-3.2-1-5.5-4.2s-2.9-6.4-2.3-6.6c0.6-0.2,2.2,2.3,4.2,5.1
					C697.1,385.6,699,387.9,698.6,388.4z"/>
			</g>
		</g>
	</g>
	<g>
		<g>
			<g>
				<path class="st2" d="M705.9,402.4c-0.3,0.6-5.3-1.3-11.2-4.3c-0.7-0.4-1.6-0.7-2.4-1.6c-0.4-0.4-0.7-1.1-0.7-1.7
					c-0.1-0.6,0.1-1.2,0.3-1.6c0.4-0.9,0.9-1.4,1.3-1.9c0.4-0.5,0.9-0.9,1.3-1.3c1.7-1.5,3.1-1.9,3.3-1.6s-0.8,1.2-2,2.8
					c-0.3,0.4-0.6,0.9-1,1.4c-0.3,0.5-0.7,1-0.8,1.5s-0.1,0.6,0.2,0.9s0.9,0.6,1.6,1C701.7,398.9,706.2,401.8,705.9,402.4z"/>
			</g>
		</g>
	</g>
	<g>
		<g>
			<g>
				<ellipse class="st1" cx="638.5" cy="173.4" rx="1.6" ry="56.5"/>
			</g>
		</g>
	</g>
	<g>
		<g>
			<g>
				<ellipse class="st1" cx="836.8" cy="175.1" rx="1.6" ry="52.4"/>
			</g>
		</g>
	</g>
	<g>
		<g>
			<g>
				<ellipse class="st1" cx="735.6" cy="242.4" rx="89.6" ry="1.6"/>
			</g>
		</g>
	</g>
	<g>
		<g>
			<path class="st5" d="M696.3,253.2"/>
		</g>
	</g>
	<g>
		<g>
			<path class="st5" d="M631.9,249.7"/>
		</g>
	</g>
	<g>
		<g>
			<g>
				<ellipse class="st1" cx="736.8" cy="113.5" rx="92.4" ry="1.6"/>
			</g>
		</g>
	</g>
	<g>
		<g>
			<g>
				<ellipse class="st1" cx="737.6" cy="137.5" rx="90" ry="1.6"/>
			</g>
		</g>
	</g>
	<g>
		<g>
			<g>
				<path class="st1" d="M798,126.7c0.2-0.2,0.6-0.2,1-0.2s0.8-0.1,1.1-0.3l-0.7,0.5c0,0.1,0.1,0.1,0,0c0,0-0.1,0-0.2,0
					c-0.1,0,0,0-0.1,0c0,0-0.1-0.2-0.2-0.2l0,0v-0.1c0-0.1,0.1-0.1,0.1-0.2v-0.1c0,0,0,0,0.1,0c0,0,0.1,0,0,0l-0.1,0.1h-0.1l0,0l0,0
					c-0.1,0,0.2,0,0.1,0l0,0l0,0l0,0v-0.1c0,0,0,0.1,0.1,0.1c0.1,0.1,0.1,0,0,0.1c0,0-0.1,0-0.1,0.1c-0.1,0.1-0.1,0.2-0.2,0.3
					c-0.1,0.2-0.1,0.4-0.2,0.7c0,0,0,0.1,0,0.2s0.1,0.1,0.1,0.2s0,0.2,0,0.3c0,0.1-0.1,0.2-0.2,0.3c0,0-0.1,0.1-0.2,0.1
					c-0.1,0-0.2,0-0.3,0c-0.5,0-1.1-0.4-1.5-1.1c-0.2-0.3-0.3-0.8-0.3-1.2c0-0.5,0.1-1,0.4-1.6c0.2-0.3,0.4-0.5,0.8-0.8
					c0.2-0.1,0.3-0.2,0.5-0.3h0.1l0,0l0,0h0.2l0,0h0.1h0.1c1-0.2,1.7,0.1,2.3,0.5c0.8,0.6,1.2,1.4,1.3,2.2c0.2,0.8-0.2,1.9-0.9,2.5
					l-0.5,0.4h-0.3c-1.3,0-2.1-0.6-2.4-1.1C797.7,127.3,797.8,126.9,798,126.7z"/>
			</g>
		</g>
	</g>
	<g>
		<g>
			<g>
				<path class="st1" d="M812,125.9c0.1,0,0.2,0,0.3,0s0.1,0,0.2,0h0.1l0,0c0,0,0.1,0,0.1-0.3c0.1-0.3,0-0.3,0.1-0.4v-0.1l0,0
					l0.1,0.1c0.1,0.2,0.4,0.3,0.3,0.3l-0.1-0.1l0,0l0,0c-0.9,0.3-0.2,0.1-0.4,0.2l0,0l0,0l0,0l0,0c0,0,0.1,0,0,0c0,0,0,0-0.1,0.1
					l-0.2,0.2c0,0,0,0-0.1,0s-0.4-0.1-0.5-0.1l0,0c-0.2,0.1-0.2,0.3-0.2,0.5c0.1,0.2,0.3,0.4,0.2,0.5c0,0.2-0.2,0.3-0.5,0.2
					c-0.3,0-0.8-0.4-1.1-0.9s-0.4-1.1-0.4-1.7c0-0.2,0-0.3,0.1-0.4s0.2-0.1,0.3-0.3c0.1-0.3,0.2-0.6,0.5-0.8l0,0
					c0.8-0.4,1.7-0.5,2.6-0.2c0.5,0.2,1,0.5,1.4,1s0.6,1.1,0.6,1.7v0.2c0,0.1,0,0.3-0.1,0.4c-0.1,0.3-0.2,0.4-0.3,0.5
					c-0.2,0.3-0.4,0.5-0.6,0.6c-0.4,0.3-0.8,0.3-1.2,0.3s-0.7-0.1-1-0.3c-0.3-0.2-0.5-0.5-0.6-0.7C811.5,126,811.8,125.9,812,125.9z
					"/>
			</g>
		</g>
	</g>
	<g>
		<g>
			<g>
				<path class="st1" d="M824.4,127.7c-0.1-0.2-0.1-0.4-0.2-0.6c-0.1-0.2-0.3-0.2-0.4-0.3c-0.1,0-0.3-0.1-0.4-0.1h-0.1
					c0,0,0,0,0.1-0.1c0,0,0.1-0.1,0.1-0.2c0.1-0.2,0.1-0.4,0.1-0.3s0.1,0.1,0.1,0.2l0.2-0.2c-0.1-0.1,0,0,0.1,0s0.2,0,0.2,0
					c0.1,0,0,0,0,0c-0.1,0.1-0.1,0.3-0.1,0.4c0,0.2,0,0.3,0,0.5C824.2,127.2,824.4,127.4,824.4,127.7c0,0.1,0,0.3-0.2,0.6
					c-0.3,0.2-0.8,0.3-1.4,0.1c-0.5-0.2-1.1-0.6-1.4-1.3c-0.2-0.3-0.3-0.8-0.3-1.3s0.2-1.1,0.6-1.6l0.1-0.2l0.1-0.1
					c0.2-0.1,0.4-0.2,0.6-0.3c0.7-0.2,1.4-0.1,1.9,0.2c0.5,0.3,0.8,0.6,1,0.9c0.4,0.7,0.6,1.4,0.4,2c-0.1,0.7-0.6,1.1-0.9,1.2
					C824.8,128,824.5,127.9,824.4,127.7z"/>
			</g>
		</g>
	</g>
	<g>
		<g>
			<g>
				
					<ellipse transform="matrix(0.4524 -0.8918 0.8918 0.4524 235.217 764.5833)" class="st1" cx="740.2" cy="190.8" rx="41.3" ry="1.6"/>
			</g>
		</g>
	</g>
	<g>
		<g>
			<g>
				<path class="st1" d="M659.6,187.3c-0.5-0.7,7.7-7.8,18.6-15.6c10.9-7.8,20.2-13.3,20.7-12.6s-8,7.4-18.8,15.2
					C669.2,182.1,660.1,188,659.6,187.3z"/>
			</g>
		</g>
	</g>
	<g>
		<g>
			<g>
				
					<ellipse transform="matrix(0.3587 -0.9335 0.9335 0.3587 256.8312 762.6487)" class="st1" cx="683.4" cy="194.4" rx="1.6" ry="24.3"/>
			</g>
		</g>
	</g>
	<g>
		<g>
			<g>
				<path class="st1" d="M816.1,177.9c-0.3,0.8-10.5-1.7-22.6-6.3s-21.4-9.6-21.1-10.4c0.4-0.8,10.2,2.7,22.2,7.3
					C806.7,173.2,816.4,177.1,816.1,177.9z"/>
			</g>
		</g>
	</g>
	<g>
		<g>
			<g>
				<path class="st1" d="M782.3,202.8c-0.6-0.6,5.6-7.4,14.3-14.5s16.5-11.9,17-11.1c0.5,0.7-6.4,6.6-15,13.7
					C790,197.8,782.9,203.4,782.3,202.8z"/>
			</g>
		</g>
	</g>
	<g>
		<g>
			<g>
				<path class="st1" d="M721.9,308.3c-0.9,0.1-3.4-12.1-3.9-27.4c-0.6-15.3,1-27.7,1.9-27.6c0.9,0.1,0.8,12.4,1.3,27.5
					C721.8,295.9,722.8,308.1,721.9,308.3z"/>
			</g>
		</g>
	</g>
	<g>
		<g>
			<g>
				<path class="st3" d="M1007.7,189c0,1.8-32.9,3.9-73.7,2.9c-40.7-1-73.5-4.9-73.4-6.7s33-0.9,73.6,0.2
					C974.8,186.4,1007.7,187.2,1007.7,189z"/>
			</g>
		</g>
	</g>
	<g>
		<g>
			<g>
				<path class="st3" d="M1031.5,308.9c-1.7,0.3-6.5-19.5-7.8-44.5c-0.6-12.5-0.3-23.8,0.5-31.9c0.8-8.2,1.9-13.1,2.7-13.1
					c1.9,0.1,2,20.1,3.3,44.7C1031.4,288.7,1033.3,308.6,1031.5,308.9z"/>
			</g>
		</g>
	</g>
	<g>
		<g>
			<g>
				<path class="st1" d="M1165.8,213.9c-0.4,0.1-1.5-5.4-2.8-14.3c-1.3-8.9-2.7-21.2-3.7-34.8c-1.1-13.6-1.6-26-1.8-35
					c-0.2-9,0.1-14.5,0.5-14.5c0.5,0,1.1,5.5,1.8,14.4c0.7,8.9,1.7,21.2,2.7,34.8c1.1,13.6,2.1,25.9,2.8,34.8
					C1166,208.3,1166.3,213.8,1165.8,213.9z"/>
			</g>
		</g>
	</g>
	<g>
		<g>
			<g>
				<path class="st1" d="M1139.6,253.2c-0.8-0.4,3.4-10.3,10.3-21.7c6.8-11.4,13.6-19.8,14.3-19.3c0.8,0.5-4.8,9.7-11.5,21
					C1145.9,244.5,1140.4,253.6,1139.6,253.2z"/>
			</g>
		</g>
	</g>
	<g>
		<g>
			<g>
				<path class="st1" d="M1184.8,227.3c0.4,0.8-9.4,5.7-21.3,11.8s-21.6,11.1-22.1,10.3c-0.5-0.7,8.5-7.1,20.6-13.2
					C1174.1,230,1184.5,226.4,1184.8,227.3z"/>
			</g>
		</g>
	</g>
	<g>
		<g>
			<g>
				<ellipse class="st1" cx="1256.4" cy="112.6" rx="94" ry="1.6"/>
			</g>
		</g>
	</g>
	<g>
		<g>
			<g>
				<path class="st1" d="M1355.7,210.2c-1-0.1-0.4-19.8-1.6-44.1c-1.1-24.3-3.4-43.9-2.4-44c0.4-0.1,1.6,4.8,2.8,12.7
					c1.2,7.9,2.4,19,2.9,31.2s0.4,23.3-0.1,31.3C1356.9,205.3,1356.2,210.2,1355.7,210.2z"/>
			</g>
		</g>
	</g>
	<g>
		<g>
			<g>
				<path class="st1" d="M1350.3,215.9c0,0.2-2.2,0.7-6.3,1.3c-4.1,0.6-9.9,1.4-17.2,2.2c-7.3,0.8-16,1.6-25.7,2.4
					c-9.7,0.7-20.3,1.3-31.5,1.8c-11.2,0.4-21.8,0.6-31.5,0.6s-18.4-0.2-25.8-0.4c-7.3-0.3-13.3-0.6-17.3-0.9
					c-4.1-0.3-6.3-0.6-6.3-0.8s2.3-0.4,6.4-0.4c4.1-0.1,10-0.1,17.3-0.1s16-0.1,25.7-0.3s20.3-0.5,31.4-0.9
					c11.2-0.4,21.8-1,31.4-1.5c9.7-0.6,18.3-1.1,25.6-1.7c7.3-0.5,13.2-0.9,17.3-1.2C1348,215.8,1350.3,215.7,1350.3,215.9z"/>
			</g>
		</g>
	</g>
	<g>
		<g>
			<g>
				<path class="st1" d="M1213,184.3c0.1,0.1-0.1,0.4-0.4,0.9c-0.2,0.2-0.4,0.6-0.7,0.9c-0.3,0.3-0.7,0.7-1.1,1
					c-1.8,1.5-4.9,3.2-9.1,3.9c-2.1,0.3-4.5,0.3-7-0.1c-2.5-0.5-5.1-1.4-7.5-3c-4.9-3.2-8.3-9.1-9.1-15.6
					c-0.8-6.5,0.8-13.1,4.6-17.5c3.7-4.5,8.6-6.7,12.8-7.4c4.2-0.7,7.7,0,9.8,0.9c0.5,0.2,1,0.5,1.4,0.7s0.7,0.4,1,0.6
					c0.5,0.4,0.7,0.6,0.7,0.7c-0.1,0.1-0.4,0.1-1-0.1c-0.3-0.1-0.6-0.2-1-0.3s-0.9-0.2-1.4-0.3c-2.1-0.5-5.3-0.7-9,0.1
					c-3.7,0.9-7.9,3.1-10.9,7s-4.4,9.5-3.7,15.2c0.8,5.7,3.6,10.8,7.6,13.6c4,2.9,8.7,3.7,12.5,3.4s6.8-1.6,8.6-2.6
					c0.5-0.3,0.9-0.5,1.3-0.7s0.6-0.4,0.9-0.6C1212.6,184.4,1212.9,184.3,1213,184.3z"/>
			</g>
		</g>
	</g>
	<g>
		<g>
			<g>
				<path class="st1" d="M1235.7,184.1c0.1-0.2,1.3,0.1,3.4,0.6s5.2,1.4,8.8,1.3c1.8-0.1,3.8-0.4,5.6-1.4c1.8-1,3.5-2.5,4.5-4.5
					s1.1-4.3,0.1-6.5s-2.8-4.2-5.2-5.6c-2.4-1.4-5-2.3-7.7-3.4c-1.4-0.6-2.8-1.3-4-2.2s-2.4-2.1-3-3.7c-0.7-1.6-0.6-3.4,0.1-4.8
					c0.6-1.4,1.5-2.4,2.4-3.3c1.7-1.8,3.7-3,5.6-3.9c3.8-1.8,7.3-1.8,9.5-1.5c2.3,0.3,3.4,1,3.3,1.2s-1.3,0-3.4,0.1
					s-5.2,0.5-8.4,2.3c-1.6,0.9-3.2,2.1-4.6,3.7c-0.7,0.8-1.4,1.7-1.7,2.5c-0.3,0.8-0.3,1.7,0,2.5c0.4,0.8,1.1,1.6,2.1,2.3
					s2.1,1.2,3.3,1.7c2.6,1,5.5,1.9,8.2,3.6c2.8,1.6,5.2,4.1,6.4,7.1c0.6,1.5,0.9,3.1,0.8,4.7c-0.1,1.6-0.5,3.1-1.2,4.4
					c-1.4,2.6-3.7,4.4-5.9,5.5c-2.3,1.1-4.7,1.4-6.8,1.3c-2.1-0.1-3.9-0.5-5.4-1s-2.8-1-3.8-1.4
					C1236.7,185,1235.7,184.3,1235.7,184.1z"/>
			</g>
		</g>
	</g>
	<g>
		<g>
			<g>
				<path class="st1" d="M1284.6,183.1c0-0.2,1.1-0.3,3.1-0.4c1.9-0.1,4.8,0,7.9-0.9c1.6-0.4,3.2-1.1,4.7-2.2
					c1.5-1.1,2.8-2.6,3.5-4.5c0.7-1.8,0.7-3.9-0.1-5.9c-0.8-2-2.4-3.7-4.4-5.1c-1-0.7-2.1-1.2-3.1-1.6c-0.6-0.2-1.1-0.3-1.7-0.5
					c-0.6-0.1-1.3-0.3-1.9-0.5c-0.7-0.2-1.4-0.5-2.1-0.9s-1.3-1-1.8-1.7c-0.9-1.3-1.2-2.9-1.2-4.2c0-1.4,0.3-2.7,0.8-3.9
					s1.3-2.2,2.1-3c1.6-1.6,3.5-2.6,5-3.4c3.1-1.7,6.4-2.4,8.5-1.6c1.1,0.4,1.7,1.1,1.9,1.6c0.2,0.5,0.2,0.8,0.1,0.9
					c-0.1,0.1-0.3-0.2-0.7-0.5c-0.3-0.3-0.9-0.7-1.7-0.8c-0.8-0.1-1.9,0-3.1,0.4s-2.5,1.1-4,2c-1.4,0.9-3,1.9-4.2,3.2
					c-0.6,0.7-1.1,1.4-1.4,2.2s-0.5,1.8-0.5,2.7s0.3,1.8,0.8,2.5c0.5,0.6,1.1,1.1,2.2,1.3c0.5,0.1,1.1,0.3,1.7,0.4
					c0.6,0.1,1.4,0.3,2,0.6c1.4,0.5,2.7,1.1,3.9,1.9c2.4,1.6,4.5,3.9,5.5,6.6c1.1,2.7,1,5.8,0,8.2c-1,2.5-2.8,4.3-4.7,5.6
					c-1.9,1.3-3.9,2-5.7,2.3c-3.7,0.6-6.6,0.2-8.5-0.1C1285.6,183.6,1284.6,183.3,1284.6,183.1z"/>
			</g>
		</g>
	</g>
	<g>
		<g>
			<g>
				<path class="st1" d="M1067.8,644.7c-0.9,0.2-3.2-7-7.2-15.3c-3.9-8.4-8-14.7-7.2-15.3c0.4-0.3,1.8,1,3.8,3.5
					c2,2.4,4.3,6.1,6.4,10.4c2,4.3,3.4,8.5,4,11.6C1068.2,642.6,1068.2,644.6,1067.8,644.7z"/>
			</g>
		</g>
	</g>
	<g>
		<g>
			<g>
				<path class="st1" d="M1071.7,616.6c0,0.4-1.1,0.8-2.9,0.9c-1.8,0.1-4.2-0.2-6.8-1c-2.6-0.8-4.8-2-6.2-3c-1.4-1.1-2.1-2-1.9-2.4
					c0.5-0.8,4.3,0.8,9,2.3C1067.7,614.9,1071.7,615.7,1071.7,616.6z"/>
			</g>
		</g>
	</g>
	<g>
		<g>
			<g>
				<ellipse class="st1" cx="1188.5" cy="619.3" rx="116.7" ry="1.6"/>
			</g>
		</g>
	</g>
	<g>
		<g>
			<g>
				<ellipse class="st1" cx="1300.1" cy="653.9" rx="1.6" ry="32"/>
			</g>
		</g>
	</g>
	<g>
		<g>
			<g>
				<ellipse class="st1" cx="1068.1" cy="665.5" rx="1.6" ry="19.5"/>
			</g>
		</g>
	</g>
	<g>
		<g>
			<g>
				<ellipse class="st1" cx="1183.6" cy="685.9" rx="113.6" ry="1.6"/>
			</g>
		</g>
	</g>
	<g>
		<g>
			<g>
				<path class="st1" d="M1118.8,644.1c-0.4,0.1-1.1-2.4-1.9-6.4c-0.2-1-0.4-2.1-0.6-3.3c0-0.3-0.1-0.6-0.1-0.6
					c0-0.1-0.1-0.2-0.2-0.3s-0.2-0.1-0.3-0.1c-0.1,0-0.3-0.1-0.6-0.1c-2.6-0.1-5.6-0.3-8.6-0.5c-1.5-0.1-3-0.2-4.5-0.4
					c-1.4-0.1-2.9-0.3-4.1-0.4c-1.2-0.1-2.2,0-2.9,0.4c-0.7,0.4-1.3,1-1.6,1.8c-0.7,1.5-0.8,3.2-1,4.3c-0.1,1.1-0.2,1.8-0.5,1.8
					c-0.2,0-0.5-0.6-0.8-1.7c-0.2-1.1-0.6-2.9,0.1-5.2c0.3-1.1,1.1-2.4,2.4-3.3c1.3-0.9,3-1.1,4.4-1.1c1.5,0,2.8,0.1,4.3,0.2
					c1.4,0.1,3,0.2,4.5,0.3c3.1,0.2,5.9,0.5,8.7,0.8c0.4,0.1,0.8,0.1,1.4,0.3c0.5,0.2,1,0.5,1.3,0.9s0.6,0.9,0.7,1.4
					s0.1,0.8,0.2,1.1c0.1,1.2,0.1,2.3,0.2,3.3C1119.4,641.5,1119.2,644.1,1118.8,644.1z"/>
			</g>
		</g>
	</g>
	<g>
		<g>
			<g>
				<path class="st1" d="M1093,665.5c0.2-0.1,0.8,0.7,0.9,2.4c0.1,1.6-0.6,4,0.5,5.9c0.6,0.8,1.1,1,2.6,0.6s3.1-0.9,4.7-1.6
					c1.5-0.7,3-1.6,3.9-2.9c0.4-0.6,0.8-1.3,0.9-2.1c0.2-0.8,0.2-1.7,0.2-2.8c-0.3-16.8-1.7-30.4-0.7-30.5c0.9-0.1,3.7,13.4,4,30.5
					c0,1.1,0,2.3-0.2,3.5s-0.8,2.4-1.5,3.4c-1.5,2-3.5,3-5.3,3.7s-3.6,1.1-5.2,1.5c-0.9,0.2-1.9,0.3-3-0.1c-0.5-0.2-1-0.5-1.4-0.9
					s-0.6-0.8-0.8-1.2c-0.7-1.6-0.6-3.1-0.4-4.3c0.2-1.1,0.5-2,0.6-2.7C1092.9,666.4,1092.7,665.6,1093,665.5z"/>
			</g>
		</g>
	</g>
	<g>
		<g>
			<g>
				<path class="st1" d="M1167.1,673.6c-0.4,0.1-1.4-4.1-2.8-11.1c-0.7-3.5-1.5-7.7-2.4-12.5c-0.5-2.4-0.8-5-1.6-7.3
					c-0.4-1.2-0.9-2.2-1.7-3c-0.4-0.4-0.8-0.7-1.3-1c-0.5-0.2-0.6-0.2-0.8-0.1c-0.1,0-0.1,0.1-0.2,0.2c-0.1,0.1-0.2,0.3-0.4,0.6
					c-0.3,0.6-0.6,1.2-0.9,1.8c-0.6,1.2-1.2,2.5-1.7,3.7c-1.1,2.6-2.1,5.2-2.9,8c-2.1,6.7-3.3,13.4-3.7,19.6l-3-0.1
					c0.1-11,2.6-20.2,5-26.3s4.6-9.4,4.8-9.2c0.4,0.2-1.2,3.7-3.1,9.8c-1.8,6.1-3.8,15.1-3.7,25.7l-3-0.1c0.3-6.4,1.4-13.4,3.6-20.4
					c0.9-2.9,1.9-5.6,3.1-8.3c0.6-1.3,1.2-2.6,1.8-3.9c0.3-0.6,0.6-1.3,1-1.9c0.2-0.3,0.4-0.7,0.7-1.1c0.4-0.4,0.8-0.8,1.4-1
					s1.2-0.3,1.8-0.2c0.7,0.1,1.1,0.3,1.6,0.5c0.8,0.5,1.5,1,2.1,1.6c1.1,1.3,1.8,2.8,2.2,4.2c0.4,1.4,0.7,2.8,0.9,4.1
					c0.2,1.3,0.4,2.5,0.5,3.7c0.7,4.8,1.3,9.1,1.7,12.6C1167.1,669.3,1167.5,673.5,1167.1,673.6z"/>
			</g>
		</g>
	</g>
	<g>
		<g>
			<g>
				<path class="st1" d="M1164.9,657c-0.3,0.9-4.2,0.4-9-0.2c-1.2-0.2-2.3-0.3-3.4-0.5c-1-0.1-2.1-0.4-2.4-0.4c-0.1,0-0.1,0-0.2-0.1
					l0,0l0,0l0,0l0,0l0,0c-0.1-0.1,0.2,0.3-0.3-0.3l0,0l0,0h0.1h0.1l0,0c0,0,0,0-0.1,0.1c0,0-0.1,0.1-0.1,0.2c0,0.1-0.1,0.2-0.1,0.3
					s0.1,0.1,0.1,0.1l0.1,0.1c0,0.1,0,0.1,0,0.2c0,0.1,0,0.1-0.2,0.2c-0.2,0.1-0.7,0.1-1-0.1c-0.3-0.3-0.6-0.7-0.6-1.4
					c0-0.4,0.3-0.8,0.5-1c0.3-0.3,0.6-0.5,0.9-0.6c0.6-0.3,1.2-0.3,1.7-0.3s1-0.1,1.6-0.1c1.1,0,2.3,0.1,3.6,0.2
					C1161.4,654.2,1165.1,656.2,1164.9,657z"/>
			</g>
		</g>
	</g>
	<g>
		<g>
			<g>
				<path class="st1" d="M1214.3,637.7c0.5,0.2-0.8,3.9-1,10.3c-0.2,3.2-0.1,7-0.6,11.3c-0.2,2.2-0.6,4.5-1.3,6.8l-0.3,0.9l-0.3,0.9
					c-0.2,0.6-0.4,1.2-0.8,1.7c-0.3,0.6-0.6,1.1-0.9,1.7c-0.2,0.3-0.4,0.6-0.7,1c-0.3,0.4-0.8,0.7-1.3,1c-1,0.5-2.1,0.4-3.1,0
					c-1-0.5-1.5-1.1-1.9-1.7c-0.4-0.6-0.8-1.2-1-1.7c-0.3-0.5-0.6-1-0.8-1.6c-1.1-2.1-2.1-4.1-3-6c-1.8-3.9-3.3-7.5-4.4-10.5
					c-2.2-6.1-3-10-2.6-10.2s2,3.5,4.7,9.3c1.4,2.9,3,6.3,4.9,10.1c1,1.9,2,3.8,3.1,5.8c0.3,0.5,0.6,1,0.8,1.5
					c0.3,0.5,0.5,1,0.8,1.3c0.7,0.8,0.8,0.8,1.1,0.7c0.1,0,0.1-0.1,0.2-0.1c0.1-0.1,0.2-0.3,0.4-0.5c0.3-0.4,0.5-1,0.8-1.4
					c0.3-0.5,0.5-1,0.7-1.5l0.3-0.8l0.3-0.8c0.7-2.1,1.1-4.2,1.4-6.2c0.6-4.1,0.8-7.9,1.3-11.2c0.5-3.2,1.1-5.8,1.8-7.5
					C1213.5,638.5,1214.1,637.7,1214.3,637.7z"/>
			</g>
		</g>
	</g>
	<g>
		<g>
			<g>
				<path class="st1" d="M1265.6,671.7c-0.5,0-1.2-6.3-3.6-16.1c-0.6-2.5-1.4-5.1-2.2-8c-0.4-1.4-0.9-2.9-1.4-4.4
					c-0.1-0.4-0.3-0.7-0.4-1.1c-0.1-0.4-0.3-0.8-0.4-1.1c-0.3-0.6-0.6-1.2-0.9-1.5c-0.2-0.2-0.5-0.2-0.7,0c-0.3,0.2-0.8,0.7-1.2,1.4
					c-0.4,0.7-0.8,1.5-1.2,2.3c-0.4,0.8-0.8,1.6-1.1,2.4c-1.4,3.3-2.7,6.8-3.6,10.5c-1.5,5.9-2.2,11.7-2.1,17.2l-3.1-0.2
					c1.7-11.1,3.2-20.7,4.4-27.5c0.3-1.7,0.6-3.2,0.8-4.5c0.1-0.7,0.3-1.3,0.4-1.8s0.2-1.1,0.4-1.6c0.2-0.5,0.6-1,1.2-1.1
					c0.5-0.1,0.9,0.2,1.1,0.4s0.3,0.5,0.2,0.7c-0.1,0.2-0.1,0.2-0.2,0.2s-0.1-0.3-0.4-0.4c-0.2-0.1-0.4-0.1-0.6,0c0,0-0.1,0-0.1,0.1
					c-0.1,0.1-0.1,0.1-0.1,0.2c-0.1,0.1-0.1,0.3-0.2,0.4c-0.1,0.4-0.1,0.9-0.2,1.4c0,0.6-0.1,1.2-0.1,1.9c-0.1,1.3-0.3,2.9-0.4,4.6
					c-0.7,6.8-1.8,16.5-3.3,27.6l-3.1-0.2c-0.1-5.7,0.5-11.9,2.1-18c1-3.9,2.3-7.6,3.9-11c0.4-0.9,0.8-1.7,1.2-2.5
					c0.4-0.8,0.8-1.6,1.3-2.5s1.2-1.8,2.4-2.5c0.6-0.3,1.4-0.5,2.1-0.4s1.4,0.4,2,0.8c1,0.9,1.4,1.8,1.8,2.7
					c0.2,0.4,0.3,0.9,0.4,1.2c0.1,0.4,0.3,0.8,0.4,1.2c0.5,1.5,0.9,3.1,1.3,4.5c0.8,2.9,1.4,5.7,1.9,8.2c1,5.1,1.4,9.2,1.5,12.1
					C1265.9,670,1265.8,671.6,1265.6,671.7z"/>
			</g>
		</g>
	</g>
	<g>
		<g>
			<g>
				<path class="st1" d="M1266.3,657.3c0,0.9-4.2,1.4-9.3,0.4c-5-1-8.7-3.1-8.4-4c0.3-0.9,4.3-0.2,9.1,0.8
					C1262.4,655.4,1266.3,656.4,1266.3,657.3z"/>
			</g>
		</g>
	</g>
	<g>
		<g>
			<g>
				<path class="st1" d="M1090.3,718c0.1-0.2,0.9,0,2.2,0.3c1.3,0.3,3.2,0.5,5.4,0.2c1.1-0.2,2.3-0.5,3.5-1.1c0.6-0.3,1.2-0.6,1.5-1
					c0.3-0.3,0.3-0.5,0.2-0.7c-0.1-0.3-0.5-0.8-1-1.2c-0.3-0.2-0.6-0.4-0.9-0.6c-0.3-0.2-0.6-0.3-1-0.5c-1.6-0.7-3.3-1.5-5-2.3
					c-0.8-0.4-1.7-0.8-2.5-1.2c-0.6-0.3-1.2-0.6-1.8-0.9c-0.7-0.3-1.4-0.7-2-1l-1-0.5c0,0,0,0-0.1,0v-0.1l0.1-0.1l0.2-0.2l0.4-0.4
					c0.5-0.6,0.9-1.1,1.4-1.7l0.7-0.8c0.2-0.3,0.5-0.5,0.7-0.7c0.3-0.3,0.7-0.6,1-0.8c2.8-2.1,5.9-3.1,8.5-3.5
					c2.6-0.3,4.7,0,6.1,0.4c0.7,0.2,1.2,0.4,1.5,0.6c0.3,0.2,0.5,0.3,0.5,0.5c-0.1,0.5-3.2-0.3-7.7,0.8c-2.2,0.6-4.8,1.6-7.1,3.6
					c-0.3,0.2-0.6,0.5-0.8,0.7c-0.2,0.2-0.2,0.2-0.3,0.3c-0.1,0.1-0.1,0.2-0.2,0.3l-0.1,0.1l0.2,0.1l0.3,0.1
					c0.2,0.1,0.4,0.2,0.7,0.3c0.8,0.4,1.7,0.8,2.5,1.2c1.7,0.8,3.3,1.6,4.9,2.4c0.8,0.4,1.8,0.9,2.5,1.6c0.8,0.7,1.6,1.5,1.9,2.8
					c0.4,1.4-0.3,2.9-1.2,3.6c-0.9,0.7-1.6,1-2.4,1.3c-1.5,0.6-3,0.9-4.3,0.9c-2.7,0.1-4.8-0.6-6.1-1.3
					C1090.8,718.8,1090.2,718.1,1090.3,718z"/>
			</g>
		</g>
	</g>
	<g>
		<g>
			<g>
				<path class="st1" d="M1136.5,712.7c0.1,0.2-0.3,0.7-1.2,1.3c-0.9,0.6-2.2,1.5-4.1,2.2c-1,0.3-2.1,0.7-3.3,0.8
					c-0.6,0.1-1.3,0.1-2,0s-1.4-0.2-2.1-0.5c-1.4-0.5-2.8-1.3-3.9-2.6c-0.5-0.7-1-1.4-1.3-2.3c-0.3-0.9-0.4-1.9-0.3-2.8
					c0.1-0.9,0.4-1.9,0.9-2.6c0.5-0.8,1-1.4,1.6-2c1.2-1.1,2.5-1.8,3.7-2.4c2.5-1.1,4.8-1.6,6.8-1.8c2.1-0.2,3.8,0.2,4.8,0.8
					s1.4,1.1,1.3,1.3c-0.3,0.4-2.3-0.7-5.8,0.2c-1.7,0.4-3.8,1.1-5.9,2.2c-2,1.1-4.1,2.7-4.3,4.7c-0.3,1.9,1.5,3.8,3.4,4.6
					s4,0.6,5.7,0.3c1.7-0.4,3.2-0.9,4.2-1.1C1135.7,712.5,1136.4,712.5,1136.5,712.7z"/>
			</g>
		</g>
	</g>
	<g>
		<g>
			<g>
				<path class="st1" d="M1157.9,719.7c-0.4,0.1-1.2-1-1.9-3c-0.7-2-1.4-4.9-1.5-8.1c-0.1-3.2,0.3-6.1,0.9-8.2
					c0.6-2,1.3-3.2,1.7-3.1c0.9,0.2,0.4,5.2,0.7,11.2C1158,714.5,1158.8,719.4,1157.9,719.7z"/>
			</g>
		</g>
	</g>
	<g>
		<g>
			<g>
				<path class="st1" d="M1172,720.6c-0.4,0.3-1.7-1.3-4.2-3.4c-1.2-1-2.8-2.2-4.6-3.4c-0.5-0.3-0.9-0.6-1.4-0.8
					c-0.2-0.1-0.5-0.3-0.8-0.4c-0.4-0.2-0.9-0.4-1.3-0.7c-1.9-0.9-4.5-1.8-6.7-2.7c1-0.4,2.1-0.8,3.1-1.2c1.1-0.4,2.2-0.8,3.2-1.3
					c0.3-0.1,0.6-0.3,0.9-0.4l0.5-0.2l0.3-0.1c0.3-0.2,0.6-0.3,0.8-0.5c0.5-0.4,1-0.8,1.4-1.2c0.4-0.5,0.7-0.8,0.9-1.3
					c0.2-0.5,0.3-1,0.4-1.5c0.1-1-0.2-2-0.6-2.5c-0.2-0.3-0.5-0.5-0.8-0.7c-0.3-0.1-0.6-0.2-1-0.2c-0.7,0-1.4,0.4-1.9,0.8
					c-0.5,0.4-0.9,0.9-1.1,1.3c-0.4,0.8-0.4,1.5-0.6,1.6c-0.1,0-0.2-0.1-0.4-0.4c-0.1-0.3-0.3-0.8-0.2-1.5c0.1-0.7,0.4-1.5,1-2.2
					s1.5-1.5,2.8-1.8s3.1,0.1,4.1,1.3c1.1,1.2,1.7,2.9,1.6,4.5c0,0.8-0.2,1.7-0.5,2.5s-0.8,1.7-1.4,2.3c-0.6,0.7-1.2,1.2-1.9,1.7
					c-0.3,0.3-0.7,0.5-1.1,0.7l-0.3,0.2l-0.1,0.1c-0.3,0.1-0.5,0.2-0.8,0.3c0.3,0.1,0.5,0.2,0.8,0.4c0.4,0.2,0.7,0.5,1.1,0.7
					c0.5,0.3,1,0.7,1.5,1c1.9,1.4,3.4,2.9,4.5,4.2C1171.5,718.5,1172.3,720.4,1172,720.6z"/>
			</g>
		</g>
	</g>
	<g>
		<g>
			<g>
				<path class="st1" d="M1187.1,725.9c-0.9-0.1-1.1-6.2-1.6-13.7s-1.2-13.6-0.3-13.8c0.9-0.2,3,5.8,3.5,13.6
					C1189.3,719.7,1188,726,1187.1,725.9z"/>
			</g>
		</g>
	</g>
	<g>
		<g>
			<g>
				
					<ellipse transform="matrix(0.9968 -8.003641e-02 8.003641e-02 0.9968 -53.059 99.667)" class="st1" cx="1216.7" cy="711.7" rx="1.6" ry="12.4"/>
			</g>
		</g>
	</g>
	<g>
		<g>
			<g>
				<path class="st1" d="M1215.9,708.4c0.3-0.4,1.8,0.4,4.3,0.3c1.2-0.1,2.6-0.4,3.7-1.3c0.6-0.4,1-1,1.3-1.6
					c0.3-0.7,0.4-1.5,0.4-2.3c0-1.6-0.9-2.9-2-3.4c-1-0.4-2.5-0.1-3.4,0.4c-1,0.6-1.5,1.3-1.8,1.9c-0.3,0.6-0.3,1.1-0.6,1.1
					c-0.1,0-0.2-0.1-0.4-0.3c-0.2-0.2-0.3-0.5-0.3-1c-0.1-0.9,0.4-2.4,1.6-3.6c0.6-0.6,1.4-1.1,2.4-1.4c1-0.3,2.2-0.4,3.4-0.1
					c1.3,0.4,2.3,1.2,3,2.3s1.1,2.4,1.2,3.7s-0.2,2.6-0.8,3.8c-0.6,1.1-1.5,2.1-2.4,2.7c-1.9,1.3-4,1.4-5.6,1.2s-2.7-0.8-3.4-1.4
					C1216,709,1215.8,708.6,1215.9,708.4z"/>
			</g>
		</g>
	</g>
	<g>
		<g>
			<g>
				
					<ellipse transform="matrix(0.9989 -4.627638e-02 4.627638e-02 0.9989 -31.0577 58.7942)" class="st1" cx="1254.3" cy="700.2" rx="11.1" ry="1.6"/>
			</g>
		</g>
	</g>
	<g>
		<g>
			<g>
				<path class="st1" d="M1256.5,721.5c-0.9,0-1.4-4.8-2.1-10.6c-0.6-5.8-1.2-10.5-0.4-10.8c0.8-0.2,2.9,4.3,3.6,10.4
					C1258.4,716.6,1257.4,721.5,1256.5,721.5z"/>
			</g>
		</g>
	</g>
	<g>
		<g>
			<g>
				<path class="st1" d="M284.3,601.4c-0.5-0.1,0.8-7,0.2-18.2c-0.2-5.6-0.9-12.2-1.7-19.7c-0.8-7.4-1.5-15.7-1.9-24.3
					c-0.8-17.3,0-33,1.1-44.2c1.1-11.3,2.4-18.2,2.8-18.1c0.5,0.1,0,7-0.5,18.3c-0.5,11.2-0.9,26.8-0.1,43.9
					c0.3,8.6,1,16.7,1.6,24.1c0.6,7.4,1.1,14.2,1,19.9c0,5.7-0.6,10.3-1.2,13.4c-0.2,0.8-0.3,1.5-0.4,2.1c-0.2,0.6-0.3,1.1-0.4,1.5
					C284.6,601,284.4,601.4,284.3,601.4z"/>
			</g>
		</g>
	</g>
	<g>
		<g>
			<path class="st5" d="M285.6,575.3"/>
		</g>
	</g>
	<g>
		<g>
			<g>
				<ellipse class="st1" cx="450.6" cy="599.7" rx="163" ry="1.6"/>
			</g>
		</g>
	</g>
	<g>
		<g>
			<g>
				
					<ellipse transform="matrix(0.9993 -3.621041e-02 3.621041e-02 0.9993 -19.0035 22.5566)" class="st1" cx="613.2" cy="535.9" rx="1.6" ry="55.6"/>
			</g>
		</g>
	</g>
	<g>
		<g>
			<g>
				<path class="st1" d="M321.1,569.8c-0.9,0-2.3-14.5-2.7-32.5c-0.3-18,0.6-32.6,1.5-32.5c0.9,0,1.5,14.6,1.8,32.5
					C322,555.2,322,569.8,321.1,569.8z"/>
			</g>
		</g>
	</g>
	<g>
		<g>
			<g>
				<path class="st1" d="M351.5,542.8c-0.2,0.4-1.9,0-4.6-0.3c-1.4-0.1-3-0.1-4.8-0.1c-1.8,0.1-3.8,0.3-6,0.5
					c-4.3,0.4-8.4,0.6-11.4,0.1c-1.5-0.3-2.8-0.8-3.5-1.4c-0.7-0.6-0.9-1.1-0.7-1.3c0.2-0.2,0.6,0,1.3,0.2c0.7,0.2,1.7,0.3,3.1,0.2
					c2.7-0.1,6.6-0.6,10.9-1c2.2-0.2,4.3-0.3,6.3-0.2s3.8,0.4,5.2,0.8C350.3,541.2,351.7,542.5,351.5,542.8z"/>
			</g>
		</g>
	</g>
	<g>
		<g>
			<g>
				
					<ellipse transform="matrix(1.395150e-02 -0.9999 0.9999 1.395150e-02 -196.6138 886.9827)" class="st1" cx="351.4" cy="543.2" rx="33" ry="1.6"/>
			</g>
		</g>
	</g>
	<g>
		<g>
			<g>
				
					<ellipse transform="matrix(3.650245e-02 -0.9993 0.9993 3.650245e-02 -126.9443 889.2892)" class="st1" cx="397.7" cy="510.5" rx="1.6" ry="24.4"/>
			</g>
		</g>
	</g>
	<g>
		<g>
			<g>
				<path class="st1" d="M400.5,579.8c-0.9,0-0.9-15.6-1.4-34.7c-0.4-19.1-1.2-34.7-0.3-34.8c0.9-0.1,3.1,15.4,3.5,34.7
					C402.9,564.2,401.4,579.8,400.5,579.8z"/>
			</g>
		</g>
	</g>
	<g>
		<g>
			<g>
				<path class="st1" d="M435.8,571.6c-0.9,0-1.9-14.5-1.8-32.5s1.2-32.5,2.1-32.5s1.2,14.6,1.2,32.5
					C437.1,557.1,436.7,571.6,435.8,571.6z"/>
			</g>
		</g>
	</g>
	<g>
		<g>
			<g>
				
					<ellipse transform="matrix(0.8357 -0.5492 0.5492 0.8357 -216.3208 333.3191)" class="st1" cx="448.9" cy="528.2" rx="1.6" ry="24.6"/>
			</g>
		</g>
	</g>
	<g>
		<g>
			<g>
				<path class="st1" d="M485.9,510.5c0.8,0.5-3.7,9.2-10.8,19c-7.1,9.8-14.1,16.7-14.7,16.1c-0.7-0.6,5.1-8.4,12.1-18
					S485.1,510.1,485.9,510.5z"/>
			</g>
		</g>
	</g>
	<g>
		<g>
			<g>
				<path class="st1" d="M493,579.7c-0.9,0.1-3.6-15.3-5.5-34.5s-2.1-34.9-1.2-35s2.6,15.5,4.5,34.6
					C492.6,564,493.9,579.6,493,579.7z"/>
			</g>
		</g>
	</g>
	<g>
		<g>
			<g>
				<path class="st1" d="M515.9,568.9c-0.9,0.1-2.8-13.4-3.7-30.1c-0.9-16.7-0.5-30.3,0.4-30.3s1.9,13.5,2.9,30.2
					C516.3,555.3,516.8,568.8,515.9,568.9z"/>
			</g>
		</g>
	</g>
	<g>
		<g>
			<g>
				<path class="st1" d="M562.2,568.9c0,0.9-10.3,1.4-23,1.6c-12.7,0.2-23,0.1-23-0.8c-0.1-0.9,10.2-2.2,23-2.4
					C551.9,567,562.3,568,562.2,568.9z"/>
			</g>
		</g>
	</g>
	<g>
		<g>
			<g>
				<ellipse class="st1" cx="445.6" cy="479.4" rx="159.9" ry="1.6"/>
			</g>
		</g>
	</g>
	<g>
		<g>
			<g>
				<path class="st1" d="M283.4,476.8c-0.9,0.2-2.2-3.1-2.3-7.2c-0.1-4.1,1-7.4,1.9-7.3s1.3,3.3,1.4,7.2
					C284.5,473.4,284.3,476.6,283.4,476.8z"/>
			</g>
		</g>
	</g>
	<g>
		<g>
			<g>
				<ellipse class="st1" cx="449.2" cy="459.6" rx="164.4" ry="1.6"/>
			</g>
		</g>
	</g>
	<g>
		<g>
			<g>
				<ellipse class="st1" cx="612" cy="464.1" rx="1.6" ry="2.7"/>
			</g>
		</g>
	</g>
	<g>
		<g>
			<g>
				<path class="st1" d="M559.2,470.7c0.2-0.1,0.5-0.1,0.7-0.2s0.4-0.2,0.6-0.4c0.2-0.2,0.5-0.5,0.6-0.8c0.1-0.1,0.1-0.3,0.1-0.3
					c0.2,0,0.3,0.2,0,0.1c0,0,0.1,0,0.1-0.1c0.1-0.1,0,0,0.1-0.1l0,0c0,0,0,0,0,0.1v0.1c0,0-0.1,0-0.3,0c-0.3,0-0.7,0.2-0.9,0.4
					c-0.1,0.1-0.2,0.1-0.3,0.2s-0.2,0.2-0.2,0.4C559.5,470.4,559.4,470.6,559.2,470.7s-0.5,0-0.8-0.3c-0.1-0.2-0.3-0.4-0.4-0.7
					c-0.1-0.3,0-0.7,0.1-1.1c0.2-0.8,0.8-1.6,1.8-2.1c0.5-0.2,1.1-0.5,1.9-0.4c0.8,0.1,1.6,0.5,2.1,1.2l0.1,0.2l0,0v0.1l0.1,0.1v0.1
					l0.1,0.2c0,0.1,0.1,0.3,0.1,0.4s0.1,0.3,0.1,0.4v0.3c0,0.2,0,0.4-0.1,0.6c-0.2,0.8-0.5,1.3-0.9,1.7c-0.8,0.8-1.7,1.1-2.5,1.1
					s-1.6-0.4-1.8-0.9C558.9,471.1,559,470.8,559.2,470.7z"/>
			</g>
		</g>
	</g>
	<g>
		<g>
			<g>
				<path class="st1" d="M575.9,471.2c0.1-0.3,0.5-0.5,0.8-0.9c0.3-0.3,0.5-0.9,0.3-1l0.2,1c-0.1,0-0.1,0-0.2-0.1
					c-0.1,0-0.2,0-0.3,0c-0.4,0-0.8,0.2-0.9,0.8c-0.1,0.3-0.1,0.6-0.1,0.9s0.1,0.5-0.1,0.7c-0.1,0.2-0.4,0.3-0.8,0.2
					c-0.4-0.1-0.9-0.5-1.3-1.2c-0.4-0.7-0.5-1.8,0-2.8s1.7-1.9,3-1.9c0.7,0,1.3,0.2,1.9,0.5c0.5,0.3,1,0.8,1.3,1.3l0.3,0.6l-0.1,0.4
					c-0.2,1-0.8,1.6-1.3,1.9c-0.6,0.4-1.1,0.5-1.6,0.4C576.1,472,575.7,471.5,575.9,471.2z"/>
			</g>
		</g>
	</g>
	<g>
		<g>
			<g>
				<path class="st1" d="M591.7,468.7c0.2-0.1,0.5,0.1,0.8,0.2s0.6,0.1,0.9,0c0.2,0,0.4-0.1,0.6-0.2c0.1,0,0.2-0.1,0.2-0.1
					c0.1,0,0.1-0.1,0.1-0.1c0.1-0.1,0.1-0.2,0.2-0.3c0-0.1,0-0.3-0.1-0.3h-0.2c-0.2,0-0.4-0.1-0.7,0s-0.4,0.5-0.3,0.8
					c0.1,0.2,0.1,0.3,0.3,0.5c0,0.1,0,0,0,0.2c0,0.1,0,0.2,0,0.1l0,0c0,0,0,0,0,0.1s0.1,0,0.2,0c0.1,0,0.2,0,0.3,0s0.2,0.1,0.2,0.3
					c0,0.1,0.1,0.1,0,0.3c0,0.1-0.1,0.3-0.3,0.4c-0.3,0.3-0.8,0.3-1.2,0.2c-0.2,0-0.7-0.2-1-0.4c-0.3-0.3-0.7-0.7-0.9-1.2
					s-0.2-1.1,0.1-1.7c0.1-0.3,0.4-0.6,0.8-1c0.3-0.1,0.4-0.3,0.8-0.4l0.5-0.2c0.2,0,0.4,0,0.6-0.1c0.8-0.1,1.5,0.1,2.1,0.2
					c0.6,0.2,1.2,0.3,1.7,0.5c0.1,0.4,0.1,0.6,0.2,0.8c0.1,0.2,0.2,1.2-0.1,1.9c-0.3,0.7-0.9,1.3-1.5,1.6c-0.3,0.2-0.6,0.3-1,0.4
					s-0.6,0.1-0.9,0.1c-0.5,0-1-0.1-1.5-0.2c-0.9-0.3-1.5-1-1.5-1.6C591.3,469,591.5,468.8,591.7,468.7z"/>
			</g>
		</g>
	</g>
	<g>
		<g>
			<path class="st4" d="M813.9,414.1"/>
		</g>
	</g>
	<g>
		<g>
			<path class="st4" d="M815,360.5"/>
		</g>
	</g>
	<g>
		<g>
			<path class="st4" d="M797.8,367.5"/>
		</g>
	</g>
	<g>
		<g>
			<path class="st4" d="M796.6,326.2"/>
		</g>
	</g>
	<g>
		<g>
			<path class="st4" d="M675.6,432.6"/>
		</g>
	</g>
	<g>
		<g>
			<g>
				
					<ellipse transform="matrix(0.5878 -0.809 0.809 0.5878 -25.281 872.4581)" class="st2" cx="843.5" cy="461" rx="13.6" ry="1.2"/>
			</g>
		</g>
	</g>
	<g>
		<g>
			<g>
				
					<ellipse transform="matrix(0.8633 -0.5048 0.5048 0.8633 -120.3636 499.326)" class="st2" cx="861.4" cy="471.8" rx="16.1" ry="1.2"/>
			</g>
		</g>
	</g>
	<g>
		<g>
			<g>
				<path class="st2" d="M895.4,479.9c0.2,0.6-5.7,3.3-13.5,5.1c-7.8,1.8-14.3,2-14.4,1.3c-0.1-0.7,6.2-1.9,13.8-3.7
					C889,480.9,895.2,479.2,895.4,479.9z"/>
			</g>
		</g>
	</g>
	<g>
		<g>
			<g>
				<g>
					<path class="st0" d="M570.2,467.9c-0.2,0-0.4-0.3-0.3-0.9c0.1-0.5,0.5-1.3,1.4-1.8s2.5-0.7,3.7,0.4c0.6,0.5,1,1.3,1.1,2.2
						c0.1,0.5,0.1,0.8,0,1.3c0,0.2-0.1,0.4-0.2,0.7c-0.1,0.2-0.2,0.4-0.3,0.6c-0.5,0.9-1.4,1.5-2.3,1.7c-0.9,0.2-1.8,0-2.6-0.4
						c-0.7-0.4-1.2-0.9-1.5-1.5s-0.4-1.3-0.3-1.8l0,0c0.1,1,0.9,1.4,1.4,1.4s0.9-0.4,1.1-0.6c0.1-0.1,0,0-0.2-0.1
						c-0.1-0.1-0.3-0.4-0.2-0.7c0.1,0.2,0.2,0.3,0.3,0.4c0.2,0.1,0.4,0.2,0.6,0.3c0.3,0.1,0.6-0.1,0.7-0.3v-0.1c0,0,0,0,0-0.1
						s0-0.2,0-0.3c0-0.1,0-0.3-0.1-0.4c-0.1-0.3-0.4-0.4-0.8-0.4c-0.4,0-0.8,0.1-1.1,0.3C570.7,467.8,570.4,468,570.2,467.9z"/>
				</g>
			</g>
		</g>
		<g>
			<g>
				<g>
					<path class="st0" d="M585,469.7c0.2,0,0.5,0.1,0.7,0.2c0.3,0,0.5,0,0.9-0.1c0.2,0,0.3-0.1,0.4-0.2l0.1-0.1l0,0v0.1v-0.2v-0.1
						l0,0l0,0l0,0c0.1-0.1-0.2,0.1-0.1,0.1l0,0l0,0l0,0l0,0l-0.2-0.2c-0.4-0.3-1-0.2-1.2,0.7c-0.3,0.8,0,1.5-0.3,1.9
						c-0.1,0.2-0.5,0.2-0.9,0s-0.9-0.8-1.1-1.7c-0.2-0.8-0.1-2.3,0.9-3.3c0.5-0.5,1.2-0.9,2-0.9c0.8-0.1,1.6,0.1,2.3,0.6
						s1.2,1.1,1.5,1.9c0.2,0.4,0.2,0.9,0.2,1.3c0,0.2-0.1,0.4-0.1,0.6v0.1l-0.1,0.2l0,0l0,0v0.1l-0.1,0.1c-0.1,0.2-0.3,0.5-0.4,0.6
						c-0.1,0.1-0.3,0.3-0.5,0.4c-0.3,0.2-0.6,0.3-0.9,0.4c-0.6,0.1-1.1,0.1-1.6,0c-0.9-0.3-1.6-1-1.7-1.5
						C584.5,470,584.8,469.7,585,469.7z"/>
				</g>
			</g>
		</g>
		<g>
			<g>
				<g>
					<path class="st0" d="M597.8,469.3c0.2-0.1,0.5,0,0.7,0c0.2-0.1,0.4-0.2,0.7-0.4c0.1-0.1,0.2-0.2,0.3-0.4c0-0.1,0-0.1,0-0.1
						c-0.1,0,0.1,0,0.1,0.1v0.1l0,0v-0.1v-0.2l0,0l0,0l0,0c0,0-0.3,0.3-0.2,0.2l0,0l0,0l0,0l0,0c0,0,0,0-0.1-0.1s-0.2-0.1-0.4-0.2
						s-0.4-0.1-0.5-0.1s-0.2,0-0.5,0.1c-0.4,0.2-0.7,0.5-1,0.9c-0.6,0.8-0.8,1.5-1.3,1.6c-0.4,0.1-1-0.7-0.9-2.3
						c0.1-0.8,0.4-1.8,1.4-2.6c0.4-0.4,1.1-0.8,1.8-0.9s1.4,0,2.1,0.2c0.7,0.3,1.3,0.7,1.8,1.4c0.5,0.6,0.7,1.5,0.6,2.2l-0.1,0.3
						c0,0.1-0.1,0.3-0.1,0.4c-0.1,0.2-0.2,0.4-0.3,0.5c-0.2,0.3-0.5,0.5-0.7,0.7c-0.5,0.3-1,0.5-1.5,0.5c-0.9,0.1-1.8-0.4-2.1-0.9
						C597.4,469.7,597.6,469.4,597.8,469.3z"/>
				</g>
			</g>
		</g>
		<g>
			<g>
				<g>
					<path class="st0" d="M796,121.7c0.1,0.3,0,0.6,0,0.9c0,0.2,0.1,0.3,0.1,0.4s0.1,0.1,0.1,0.1s0,0,0.1,0c0,0,0,0-0.1,0l-0.2-0.4
						c0.1-0.1,0,0.1,0-0.1c0-0.1,0-0.1,0-0.1s0,0,0.1-0.1s0.4-0.4,0.4-0.6v-0.1c0,0,0,0,0.1,0h0.1h0.1l0,0l-0.2,0.1l0.5,0.2
						c0,0,0,0,0-0.1l0,0c0,0,0,0.2,0,0.1c0,0-0.1,0-0.2,0c-0.2,0.1-0.5,0.2-0.6,0.4c-0.4,0.4-0.4,0.9-0.7,1c-0.2,0.1-0.4,0-0.7-0.2
						s-0.5-0.6-0.5-1.2s0.2-1.4,0.8-2c0.3-0.3,0.7-0.6,1.2-0.8c0.5-0.2,1.3-0.2,1.9,0l0.2,0.1l0.2,0.2c0.4,0.4,0.8,0.9,0.9,1.6
						c0.2,0.6,0.1,1.2-0.1,1.7c-0.4,1.1-1.2,1.9-2.1,2.3c-0.5,0.2-1.1,0.3-1.7,0.2c-0.3,0-0.6-0.2-0.8-0.3c-0.2-0.1-0.4-0.3-0.6-0.5
						l-0.2-0.2l-0.1-0.1c-0.4-0.7-0.3-1.4-0.1-1.9s0.5-0.8,0.8-1C795.5,121.3,795.9,121.5,796,121.7z"/>
				</g>
			</g>
		</g>
		<g>
			<g>
				<g>
					<path class="st0" d="M809.5,121.1c0,0.2-0.1,0.5-0.2,0.8c-0.1,0.3-0.1,0.7-0.1,1.1c0,0.2,0.1,0.4,0.2,0.6
						c0.1,0.1,0.1,0.1,0.2,0.2h0.1c0,0,0,0,0-0.1c0,0-0.1,0,0,0l0.2,0.1h0.1l0,0c-0.3-0.1-0.1,0-0.1-0.1l0,0l0,0l0,0l0,0l0,0
						c0,0,0,0,0.1-0.1c0.1,0,0.3-0.2,0.4-0.4c0.1-0.1,0.1-0.3,0.1-0.3c0-0.1,0,0,0-0.1l1.1,0.6c-0.7-0.1-1.2-0.1-1.4-0.1
						c0,0-0.1,0-0.1-0.1c0,0-0.1,0-0.1,0.1l0,0l0,0l0,0c-0.1-0.1,0.3,0.3-0.3-0.3l0,0l0,0l0,0l0,0c0,0,0.3,0,0.2,0
						c0,0,0,0.1-0.1,0.1c0,0.1,0,0.2,0,0.3c0,0.1,0,0.2,0,0.2c0,0.2,0.3,0.2,0.4,0.3c0.1,0.1,0.1,0.2,0.1,0.3
						c0.1,0.1-0.1,0.4-0.4,0.5c-0.3,0.1-0.6,0.1-1,0c-0.3-0.1-0.6-0.3-0.9-0.7c-0.3-0.3-0.5-0.8-0.4-1.6c0-0.3,0.3-0.8,0.4-0.9
						c0.2-0.3,0.4-0.5,0.7-0.7c1-0.7,2.1-0.8,3-0.8h0.6l0.5,0.6c0.5,0.6,0.7,1.3,0.7,2.1c0,0.7-0.2,1.4-0.6,1.9
						c-0.5,0.7-1.1,1.4-2,1.7c-0.4,0.2-0.9,0.2-1.4,0.2c-0.2,0-0.5-0.1-0.7-0.2h-0.1l0,0l-0.2-0.1l0,0h-0.1l-0.2-0.1
						c0,0-0.2-0.1-0.3-0.2s-0.2-0.2-0.3-0.3c-0.2-0.2-0.3-0.3-0.4-0.5c-0.2-0.3-0.3-0.7-0.4-1c-0.1-0.7-0.1-1.3,0.1-1.8
						c0.3-1,1-1.6,1.6-1.8C809.2,120.7,809.5,120.9,809.5,121.1z"/>
				</g>
			</g>
		</g>
		<g>
			<g>
				<g>
					<path class="st0" d="M821.6,122.5c0.2,0,0.4,0.1,0.7,0.2c0.2,0.1,0.5,0.2,0.9,0.3c0.2,0,0.3,0,0.5,0c0.1,0,0.3-0.1,0.2-0.1
						c0,0-0.1,0,0,0l0.1-0.1h0.1l0,0l0,0l0,0l0,0c0.1-0.1-0.1,0.1-0.1,0.1l0,0l0,0c0,0-0.1-0.1,0-0.1c0,0,0-0.1,0-0.3
						c0-0.1,0-0.2,0-0.2s0,0,0.1-0.1c0,0,0.1,0,0.2,0h-0.1h-0.1l0,0l0,0l0.2-0.1l0,0c0,0.2,0,0-0.1,0.1c-0.1,0-0.3,0-0.4,0.1
						c-0.3,0.1-0.5,0.4-0.6,0.6s-0.2,0.4-0.4,0.5s-0.5,0-0.8-0.4s-0.4-1.1,0-1.9c0.2-0.4,0.5-0.8,0.9-1.1c0.4-0.3,1.1-0.6,1.9-0.6
						c0.2,0,0.4,0.1,0.6,0.1l0.4,0.2c0.2,0.1,0.5,0.3,0.6,0.4s0.3,0.3,0.4,0.4c0.5,0.6,0.8,1.3,0.8,2s-0.1,1.4-0.5,2.1
						c-0.2,0.3-0.5,0.6-0.8,0.8l-0.2,0.2H826l-0.1,0.1l0,0l0,0l0,0h-0.1l-0.1,0.1l-0.3,0.1c-1.5,0.4-2.4-0.2-3-0.8
						c-0.6-0.6-0.8-1.3-0.7-1.7C821.2,122.8,821.4,122.6,821.6,122.5z"/>
				</g>
			</g>
		</g>
	</g>
</g>
</svg>
